<svg xmlns="http://www.w3.org/2000/svg" xmlns:xlink="http://www.w3.org/1999/xlink" width="100" height="100" viewBox="0 0 100 100">
    <defs>
        <path id="zc7qugnmca" d="M0.205 0.09L64.124 0.09 64.124 23.302 0.205 23.302z"/>
        <path id="ktksqt6mfc" d="M0 0.555L72.867 0.555 72.867 8.174 0 8.174z"/>
    </defs>
    <g fill="none" fill-rule="evenodd">
        <g>
            <g>
                <g>
                    <path fill="#111" d="M1.272 39.592c0-19.208 15.57-34.778 34.778-34.778s34.779 15.57 34.779 34.778S55.258 74.37 36.049 74.37C16.844 74.37 1.273 58.8 1.273 39.59" transform="translate(-190 -270) translate(190 270) translate(14 7)"/>
                    <path fill="#A56644" d="M13.55 52.712c0 3.277-2.656 5.934-5.933 5.934-3.277 0-5.934-2.657-5.934-5.934s2.657-5.934 5.934-5.934 5.934 2.657 5.934 5.934" transform="translate(-190 -270) translate(190 270) translate(14 7)"/>
                    <path fill="#874019" d="M12.282 52.712c0 2.005-1.626 3.63-3.63 3.63-2.006 0-3.632-1.625-3.632-3.63s1.626-3.631 3.631-3.631 3.631 1.626 3.631 3.63" transform="translate(-190 -270) translate(190 270) translate(14 7)"/>
                    <path fill="#A56644" d="M58.887 52.712c0 3.277 2.657 5.934 5.934 5.934s5.934-2.657 5.934-5.934-2.657-5.934-5.934-5.934-5.934 2.657-5.934 5.934" transform="translate(-190 -270) translate(190 270) translate(14 7)"/>
                    <path fill="#874019" d="M60.156 52.712c0 2.005 1.625 3.63 3.63 3.63 2.006 0 3.632-1.625 3.632-3.63s-1.626-3.631-3.631-3.631c-2.006 0-3.631 1.626-3.631 3.63" transform="translate(-190 -270) translate(190 270) translate(14 7)"/>
                    <path fill="#A56644" d="M62.24 38.767v18.601c0 15.211-11.725 27.542-26.19 27.542-14.464 0-26.19-12.33-26.19-27.542v-18.6l26.308-17.629L62.24 38.767z" transform="translate(-190 -270) translate(190 270) translate(14 7)"/>
                    <path fill="#111" d="M29.983 49.772c.001 1.622-1.312 2.938-2.935 2.94-1.622 0-2.939-1.313-2.94-2.935 0-1.622 1.313-2.94 2.935-2.94 1.622-.002 2.94 1.312 2.94 2.935M47.992 49.755c.001 1.622-1.312 2.938-2.935 2.94-1.622.001-2.938-1.313-2.94-2.935 0-1.622 1.313-2.939 2.935-2.94 1.622-.002 2.94 1.312 2.94 2.935M9.86 38.767s8.074.704 14.248-4.777c0 0 .89 4.806 11.942 4.806 11.053 0 11.942-4.806 11.942-4.806s3.495 4.777 14.248 4.777c0 0 4.706-24.922-27.989-24.922 0 0-24.39.028-24.39 24.922" transform="translate(-190 -270) translate(190 270) translate(14 7)"/>
                    <path fill="#874019" d="M36.466 64.184c-2.6 0-4.707-2.107-4.707-4.707v-5.689c0-2.6 2.107-4.707 4.707-4.707 2.6 0 4.708 2.107 4.708 4.707v5.689c0 2.6-2.108 4.707-4.708 4.707" transform="translate(-190 -270) translate(190 270) translate(14 7)"/>
                    <path fill="#914C28" fill-rule="nonzero" d="M31.482 67.576c.37-.352.937-.365 1.321-.05l.093.085c.135.143.44.394.893.654 1.795 1.03 3.94 1.06 6.478-.633.46-.307 1.08-.183 1.387.276.306.46.182 1.08-.277 1.387-3.202 2.137-6.16 2.096-8.584.704-.635-.364-1.087-.736-1.347-1.01-.38-.4-.364-1.033.036-1.413z" transform="translate(-190 -270) translate(190 270) translate(14 7)"/>
                    <g transform="translate(-190 -270) translate(190 270) translate(14 7) translate(4 .91)">
                        <mask id="8c9mkzgg9b" fill="#fff">
                            <use xlink:href="#zc7qugnmca"/>
                        </mask>
                        <path fill="#006AAD" d="M.205 23.302C.205 10.482 14.514.09 32.164.09s31.96 10.392 31.96 23.212" mask="url(#8c9mkzgg9b)"/>
                    </g>
                    <g transform="translate(-190 -270) translate(190 270) translate(14 7) translate(0 21.91)">
                        <mask id="ol88rk4ddd" fill="#fff">
                            <use xlink:href="#ktksqt6mfc"/>
                        </mask>
                        <path fill="#387DC1" d="M69.058 8.174H3.808C1.707 8.174 0 6.468 0 4.364 0 2.261 1.706.555 3.809.555h65.249c2.104 0 3.809 1.706 3.809 3.81 0 2.103-1.705 3.81-3.81 3.81" mask="url(#ol88rk4ddd)"/>
                    </g>
                </g>
            </g>
        </g>
    </g>
</svg>
