<svg xmlns="http://www.w3.org/2000/svg" xmlns:xlink="http://www.w3.org/1999/xlink" width="100" height="100" viewBox="0 0 100 100">
    <defs>
        <path id="fjvcjql9xa" d="M0 0.626L83.971 0.626 83.971 75.94 0 75.94z"/>
    </defs>
    <g fill="none" fill-rule="evenodd">
        <g>
            <g>
                <g>
                    <g transform="translate(-190 -150) translate(190 150) translate(8 11) translate(0 .375)">
                        <mask id="tpx1kfjcsb" fill="#fff">
                            <use xlink:href="#fjvcjql9xa"/>
                        </mask>
                        <path fill="#F03F00" d="M74.085 33.614c0-17.625-13.821-32.02-31.216-32.94l.006-.048c-.298 0-.593.014-.89.022-.296-.008-.59-.022-.888-.022l.005.048c-17.394.92-31.216 15.315-31.216 32.94 0 0 1.213 18.333-7.923 25.186-3.68 2.759-1.858 8.624 2.739 8.498l.223-.008s2.829 8.389 12.814 5.443c0 0 5.475 5.605 17.133 1.995l7.114-65.872 7.113 65.872c11.658 3.61 17.133-1.995 17.133-1.995 9.985 2.946 12.814-5.443 12.814-5.443l.224.008c4.597.125 6.417-5.74 2.738-8.498-9.135-6.853-7.923-25.186-7.923-25.186" mask="url(#tpx1kfjcsb)"/>
                    </g>
                    <path fill="#FFC6B6" d="M20.257 44.176c0 3.277-2.657 5.934-5.934 5.934S8.39 47.454 8.39 44.177c0-3.276 2.657-5.934 5.934-5.934s5.934 2.658 5.934 5.934" transform="translate(-190 -150) translate(190 150) translate(8 11)"/>
                    <path fill="#F2BBAF" d="M18.989 44.176c0 2.005-1.626 3.631-3.631 3.631s-3.631-1.626-3.631-3.63c0-2.005 1.626-3.632 3.63-3.632 2.006 0 3.632 1.627 3.632 3.631" transform="translate(-190 -150) translate(190 150) translate(8 11)"/>
                    <path fill="#FFC6B6" d="M65.593 44.176c0 3.277 2.657 5.934 5.934 5.934s5.934-2.657 5.934-5.934c0-3.276-2.657-5.934-5.934-5.934s-5.934 2.658-5.934 5.934" transform="translate(-190 -150) translate(190 150) translate(8 11)"/>
                    <path fill="#F2BBAF" d="M66.862 44.176c0 2.005 1.625 3.631 3.631 3.631 2.005 0 3.631-1.626 3.631-3.63 0-2.005-1.626-3.632-3.63-3.632-2.007 0-3.632 1.627-3.632 3.631" transform="translate(-190 -150) translate(190 150) translate(8 11)"/>
                    <path fill="#FFC6B6" d="M68.947 30.232v18.6c0 15.212-11.726 27.543-26.19 27.543-14.465 0-26.19-12.331-26.19-27.542V30.232l26.307-17.63 26.073 17.63z" transform="translate(-190 -150) translate(190 150) translate(8 11)"/>
                    <path fill="#111" d="M36.69 41.236c0 1.623-1.312 2.939-2.935 2.94-1.622.002-2.94-1.313-2.94-2.934-.001-1.622 1.313-2.94 2.935-2.94 1.622-.002 2.939 1.312 2.94 2.934M54.699 41.22c0 1.622-1.312 2.938-2.935 2.94-1.622.001-2.938-1.313-2.94-2.935-.001-1.623 1.313-2.939 2.935-2.94 1.622-.002 2.939 1.312 2.94 2.934" transform="translate(-190 -150) translate(190 150) translate(8 11)"/>
                    <path fill="#ED9583" d="M39.253 50.11c0-1.935 1.569-3.504 3.504-3.504s3.504 1.569 3.504 3.505c0 1.934-1.57 3.504-3.504 3.504-1.935 0-3.504-1.57-3.504-3.505" transform="translate(-190 -150) translate(190 150) translate(8 11)"/>
                    <path fill="#F03F00" d="M16.567 30.232s8.074.704 14.248-4.777c0 0 .89 4.806 11.942 4.806 11.053 0 11.942-4.806 11.942-4.806s3.495 4.777 14.248 4.777c0 0 4.706-24.922-27.99-24.922 0 0-24.39.028-24.39 24.922" transform="translate(-190 -150) translate(190 150) translate(8 11)"/>
                    <path fill="#ED9583" fill-rule="nonzero" d="M37.777 57.56c.4-.381 1.033-.365 1.413.035.133.139.432.385.875.64 1.76 1.01 3.862 1.04 6.35-.622.46-.306 1.08-.183 1.387.277.307.46.183 1.08-.276 1.387-3.153 2.104-6.068 2.063-8.456.692-.626-.359-1.072-.726-1.329-.996-.38-.4-.365-1.033.036-1.414z" transform="translate(-190 -150) translate(190 150) translate(8 11)"/>
                </g>
            </g>
        </g>
    </g>
</svg>
