<svg width="40" height="40" viewBox="0 0 40 40" fill="none" xmlns="http://www.w3.org/2000/svg">
<rect width="40" height="40" rx="12" fill="#9046FF"/>
<rect width="40" height="36" rx="12" fill="#CE82FF"/>
<path fill-rule="evenodd" clip-rule="evenodd" d="M12 22.0687C10.8954 22.0687 10 21.1579 10 20.0343V15.9657C10 14.8421 10.8954 13.9313 12 13.9313H13L17.3598 10.2358C17.5395 10.0834 17.7661 10 18 10C18.5128 10 18.9355 10.3927 18.9933 10.8985L19 11.0172V24.9828C19 25.2208 18.918 25.4512 18.7682 25.634C18.4419 26.0323 17.8795 26.1127 17.4612 25.8398L17.3598 25.7642L13 22.0687H12Z" fill="white"/>
<path fill-rule="evenodd" clip-rule="evenodd" d="M22.4577 14C22.4577 13.5582 22.8158 13.2 23.2577 13.2C23.8021 13.2 24.1756 13.5497 24.3893 13.8371C24.614 14.1394 24.7826 14.5259 24.9102 14.9316C25.1682 15.7525 25.3154 16.8372 25.3154 18C25.3154 19.1629 25.1682 20.2476 24.9102 21.0684C24.7826 21.4741 24.614 21.8606 24.3893 22.1629C24.1756 22.4503 23.8021 22.8 23.2577 22.8C22.8158 22.8 22.4577 22.4418 22.4577 22C22.4577 21.6122 22.7336 21.2889 23.0998 21.2156C23.1015 21.2133 23.1033 21.2109 23.1052 21.2084C23.1814 21.1059 23.2838 20.9066 23.3838 20.5885C23.5809 19.9616 23.7154 19.0463 23.7154 18C23.7154 16.9537 23.5809 16.0384 23.3838 15.4115C23.2838 15.0934 23.1814 14.8941 23.1052 14.7916C23.1033 14.7891 23.1015 14.7867 23.0998 14.7844C22.7336 14.7111 22.4577 14.3878 22.4577 14ZM23.0621 14.7415C23.0621 14.7413 23.0641 14.7429 23.0682 14.747C23.0641 14.7438 23.0621 14.7418 23.0621 14.7415ZM23.0621 21.2585C23.0621 21.2583 23.0641 21.2562 23.0682 21.2531C23.0641 21.2571 23.0621 21.2587 23.0621 21.2585Z" fill="white"/>
<path fill-rule="evenodd" clip-rule="evenodd" d="M25.5582 10.5C25.5582 10.0582 25.9163 9.70001 26.3582 9.70001C27.0546 9.70001 27.5728 10.1476 27.9181 10.6121C28.2745 11.0916 28.5617 11.7344 28.7888 12.4568C29.246 13.911 29.5163 15.8707 29.5163 18C29.5163 20.1294 29.246 22.0891 28.7888 23.5433C28.5617 24.2657 28.2745 24.9084 27.9181 25.3879C27.5728 25.8524 27.0546 26.3 26.3582 26.3C25.9163 26.3 25.5582 25.9418 25.5582 25.5C25.5582 25.0608 25.9122 24.7042 26.3504 24.7C26.3679 24.6951 26.467 24.6581 26.634 24.4334C26.8419 24.1538 27.0629 23.6982 27.2625 23.0634C27.6587 21.8031 27.9163 20.0128 27.9163 18C27.9163 15.9872 27.6587 14.1969 27.2625 12.9367C27.0629 12.3018 26.8419 11.8463 26.634 11.5667C26.4669 11.3419 26.3679 11.3049 26.3504 11.3C25.9122 11.2958 25.5582 10.9393 25.5582 10.5Z" fill="white"/>
</svg>
