<svg xmlns="http://www.w3.org/2000/svg" xmlns:xlink="http://www.w3.org/1999/xlink" width="100" height="100" viewBox="0 0 100 100">
    <defs>
        <path id="63ifkp8zka" d="M0 0.219L99.377 0.219 99.377 98.897 0 98.897z"/>
        <path id="t8b587x1uc" d="M45.391.247C20.316.27.006 20.475.028 45.374c.023 24.9 20.37 45.067 45.448 45.044 25.076-.023 45.386-20.227 45.362-45.127C90.816 20.405 70.491.247 45.434.247h-.043"/>
        <path id="g576kq0qee" d="M45.391.247C20.316.27.006 20.475.028 45.374c.023 24.9 20.37 45.067 45.448 45.044 25.076-.023 45.386-20.227 45.362-45.127C90.816 20.405 70.491.247 45.434.247h-.043"/>
        <path id="l1cmgfyy6g" d="M45.391.247C20.316.27.006 20.475.028 45.374c.023 24.9 20.37 45.067 45.448 45.044 25.076-.023 45.386-20.227 45.362-45.127C90.816 20.405 70.491.247 45.434.247h-.043"/>
        <path id="7hazl2mdwi" d="M45.391.247C20.316.27.006 20.475.028 45.374c.023 24.9 20.37 45.067 45.448 45.044 25.076-.023 45.386-20.227 45.362-45.127C90.816 20.405 70.491.247 45.434.247h-.043"/>
        <path id="avd9q9oz0k" d="M45.391.247C20.316.27.006 20.475.028 45.374c.023 24.9 20.37 45.067 45.448 45.044 25.076-.023 45.386-20.227 45.362-45.127C90.816 20.405 70.491.247 45.434.247h-.043"/>
        <path id="zs5rptzi1m" d="M45.391.247C20.316.27.006 20.475.028 45.374c.023 24.9 20.37 45.067 45.448 45.044 25.076-.023 45.386-20.227 45.362-45.127C90.816 20.405 70.491.247 45.434.247h-.043"/>
        <path id="upt6r8yuuo" d="M45.391.247C20.316.27.006 20.475.028 45.374c.023 24.9 20.37 45.067 45.448 45.044 25.076-.023 45.386-20.227 45.362-45.127C90.816 20.405 70.491.247 45.434.247h-.043"/>
        <path id="u6ctppitrq" d="M45.391.247C20.316.27.006 20.475.028 45.374c.023 24.9 20.37 45.067 45.448 45.044 25.076-.023 45.386-20.227 45.362-45.127C90.816 20.405 70.491.247 45.434.247h-.043"/>
        <path id="rjinbzvves" d="M45.391.247C20.316.27.006 20.475.028 45.374c.023 24.9 20.37 45.067 45.448 45.044 25.076-.023 45.386-20.227 45.362-45.127C90.816 20.405 70.491.247 45.434.247h-.043"/>
        <path id="rrssjy1czu" d="M45.391.247C20.316.27.006 20.475.028 45.374c.023 24.9 20.37 45.067 45.448 45.044 25.076-.023 45.386-20.227 45.362-45.127C90.816 20.405 70.491.247 45.434.247h-.043"/>
        <path id="95vbuql9qw" d="M45.391.247C20.316.27.006 20.475.028 45.374c.023 24.9 20.37 45.067 45.448 45.044 25.076-.023 45.386-20.227 45.362-45.127C90.816 20.405 70.491.247 45.434.247h-.043"/>
        <path id="ho4sdcwpny" d="M45.391.247C20.316.27.006 20.475.028 45.374c.023 24.9 20.37 45.067 45.448 45.044 25.076-.023 45.386-20.227 45.362-45.127C90.816 20.405 70.491.247 45.434.247h-.043"/>
        <path id="c0a1nzz4hA" d="M45.391.247C20.316.27.006 20.475.028 45.374c.023 24.9 20.37 45.067 45.448 45.044 25.076-.023 45.386-20.227 45.362-45.127C90.816 20.405 70.491.247 45.434.247h-.043"/>
        <path id="jiprtq378C" d="M45.391.247C20.316.27.006 20.475.028 45.374c.023 24.9 20.37 45.067 45.448 45.044 25.076-.023 45.386-20.227 45.362-45.127C90.816 20.405 70.491.247 45.434.247h-.043"/>
        <path id="2kbwve44cE" d="M45.391.247C20.316.27.006 20.475.028 45.374c.023 24.9 20.37 45.067 45.448 45.044 25.076-.023 45.386-20.227 45.362-45.127C90.816 20.405 70.491.247 45.434.247h-.043"/>
        <path id="ee2njldczG" d="M45.391.247C20.316.27.006 20.475.028 45.374c.023 24.9 20.37 45.067 45.448 45.044 25.076-.023 45.386-20.227 45.362-45.127C90.816 20.405 70.491.247 45.434.247h-.043"/>
        <path id="ksxgk150sI" d="M45.391.247C20.316.27.006 20.475.028 45.374c.023 24.9 20.37 45.067 45.448 45.044 25.076-.023 45.386-20.227 45.362-45.127C90.816 20.405 70.491.247 45.434.247h-.043"/>
    </defs>
    <g fill="none" fill-rule="evenodd">
        <g>
            <g>
                <g>
                    <g>
                        <g transform="translate(-40 -359) translate(20 210) translate(20 149) translate(0 .485)">
                            <mask id="tvwypsjgfb" fill="#fff">
                                <use xlink:href="#63ifkp8zka"/>
                            </mask>
                            <path fill="#EDD3FE" d="M49.643.219C22.245.244-.025 22.398 0 49.603c.025 27.206 22.337 49.32 49.735 49.294 27.398-.025 49.668-22.179 49.642-49.384C99.352 22.307 77.042.193 49.643.219" mask="url(#tvwypsjgfb)"/>
                        </g>
                        <path fill="#E7F1FF" d="M4.284 49.6C4.26 24.7 24.57 4.495 49.647 4.473 74.723 4.45 95.07 24.617 95.093 49.517c.024 24.9-20.286 45.104-45.362 45.126C24.654 94.667 4.307 74.5 4.284 49.6" transform="translate(-40 -359) translate(20 210) translate(20 149) translate(0 .485)"/>
                        <path fill="#CE82FE" d="M49.647 5.198C25.014 5.22 4.991 25.138 5.014 49.599c.023 24.46 20.082 44.342 44.716 44.32 24.634-.023 44.657-19.942 44.634-44.402-.023-24.46-20.083-44.342-44.717-44.32" transform="translate(-40 -359) translate(20 210) translate(20 149) translate(0 .485)"/>
                        <path fill="#CE82FE" d="M4.284 49.6C4.26 24.7 24.57 4.495 49.647 4.473 74.723 4.45 95.07 24.617 95.093 49.517c.024 24.9-20.286 45.104-45.362 45.126C24.654 94.667 4.307 74.5 4.284 49.6" transform="translate(-40 -359) translate(20 210) translate(20 149) translate(0 .485)"/>
                    </g>
                    <g>
                        <g transform="translate(-40 -359) translate(20 210) translate(20 149) translate(4.255 4.71)">
                            <mask id="n3m9ckv4yd" fill="#fff">
                                <use xlink:href="#t8b587x1uc"/>
                            </mask>
                            <path fill="#FFF" d="M12.315 89.776c-.012-12.56 4.534-25.242 4.534-25.242-.682-2.22-1.047-4.553-1.049-6.962-.003-3.596.802-7.028 2.265-10.16-3.458-1.75-4.842-6.126-3.085-9.915 1.798-3.878 6.204-5.674 9.84-4.011 1.314.6 2.348 1.57 3.048 2.746 5.08-3.38 11.409-4.691 18.27-4.698 6.86-.005 13.19 1.294 18.277 4.664.697-1.177 1.73-2.148 3.042-2.752 3.634-1.669 8.043.12 9.848 3.994 1.764 3.786.389 8.164-3.066 9.92 1.468 3.13 2.28 6.56 2.283 10.157.002 2.408-.338 4.743-1.015 6.963 0 0 4.588 12.674 4.6 25.234l-1.04 12.399" mask="url(#n3m9ckv4yd)"/>
                        </g>
                        <g transform="translate(-40 -359) translate(20 210) translate(20 149) translate(4.255 4.71)">
                            <mask id="y8d6ewmugf" fill="#fff">
                                <use xlink:href="#g576kq0qee"/>
                            </mask>
                            <path fill="#E5E6E8" d="M19.128 45.357s4.102-5.327 5.868-6.178c0 0-2.24-2.192-4.985-1.236-1.466.51-2.576 1.785-2.819 3.31-.191 1.203.081 2.746 1.936 4.104" mask="url(#y8d6ewmugf)"/>
                        </g>
                        <g transform="translate(-40 -359) translate(20 210) translate(20 149) translate(4.255 4.71)">
                            <mask id="1m6lxmp96h" fill="#fff">
                                <use xlink:href="#l1cmgfyy6g"/>
                            </mask>
                            <path fill="#E5E6E8" d="M73.128 45.307s-4.112-5.32-5.88-6.167c0 0 2.236-2.196 4.983-1.245 1.468.508 2.58 1.78 2.825 3.305.194 1.203-.076 2.747-1.928 4.107" mask="url(#1m6lxmp96h)"/>
                        </g>
                        <g transform="translate(-40 -359) translate(20 210) translate(20 149) translate(4.255 4.71)">
                            <mask id="8uvipk4xlj" fill="#fff">
                                <use xlink:href="#7hazl2mdwi"/>
                            </mask>
                            <path fill="#3A3D3D" d="M41.103 52.505c.001 1.142-.93 2.069-2.081 2.07-1.15 0-2.085-.925-2.085-2.067-.001-1.142.93-2.07 2.081-2.07 1.15-.002 2.085.924 2.085 2.067" mask="url(#8uvipk4xlj)"/>
                        </g>
                        <g transform="translate(-40 -359) translate(20 210) translate(20 149) translate(4.255 4.71)">
                            <mask id="bgol21ydkl" fill="#fff">
                                <use xlink:href="#avd9q9oz0k"/>
                            </mask>
                            <path fill="#3A3D3D" d="M53.876 52.493c0 1.142-.93 2.069-2.082 2.07-1.15.001-2.084-.924-2.085-2.067 0-1.142.931-2.07 2.081-2.07 1.15-.001 2.085.924 2.086 2.067" mask="url(#bgol21ydkl)"/>
                        </g>
                        <g transform="translate(-40 -359) translate(20 210) translate(20 149) translate(4.255 4.71)">
                            <mask id="x3ioj3sbgn" fill="#fff">
                                <use xlink:href="#zs5rptzi1m"/>
                            </mask>
                            <path fill="#3A3D3D" d="M47.488 57.775l-.99.983c-.58.579-1.523.58-2.105.002l-.99-.982c-.94-.93-.277-2.523 1.05-2.525l1.98-.001c1.326-.001 1.992 1.59 1.055 2.523" mask="url(#x3ioj3sbgn)"/>
                        </g>
                        <g transform="translate(-40 -359) translate(20 210) translate(20 149) translate(4.255 4.71)">
                            <mask id="rot79byivp" fill="#fff">
                                <use xlink:href="#upt6r8yuuo"/>
                            </mask>
                            <path fill="#FFD9E8" d="M40.757 58.875c.003 2.376-1.935 4.302-4.327 4.305-2.393.002-4.334-1.922-4.336-4.298-.003-2.375 1.935-4.302 4.328-4.305 2.392-.002 4.333 1.922 4.335 4.298" mask="url(#rot79byivp)"/>
                        </g>
                        <g transform="translate(-40 -359) translate(20 210) translate(20 149) translate(4.255 4.71)">
                            <mask id="2g78bta0yr" fill="#fff">
                                <use xlink:href="#u6ctppitrq"/>
                            </mask>
                            <path fill="#FFD9E8" d="M58.829 58.858c.002 2.376-1.936 4.303-4.328 4.305-2.392.003-4.333-1.921-4.335-4.297-.003-2.376 1.934-4.303 4.327-4.305 2.392-.002 4.334 1.922 4.336 4.297" mask="url(#2g78bta0yr)"/>
                        </g>
                        <g transform="translate(-40 -359) translate(20 210) translate(20 149) translate(4.255 4.71)">
                            <mask id="khyuympfwt" fill="#fff">
                                <use xlink:href="#rjinbzvves"/>
                            </mask>
                            <path fill="#3A3D3D" d="M43.702 62.891c-.135 0-.27-.055-.366-.163-.178-.2-.16-.506.042-.683l1.583-1.388-.003-2.23c0-.266.218-.483.487-.483s.487.216.487.482l.002 2.45c0 .137-.06.27-.164.361l-1.746 1.533c-.093.081-.208.121-.322.121" mask="url(#khyuympfwt)"/>
                        </g>
                        <g transform="translate(-40 -359) translate(20 210) translate(20 149) translate(4.255 4.71)">
                            <mask id="umo5ps4hhv" fill="#fff">
                                <use xlink:href="#rrssjy1czu"/>
                            </mask>
                            <path fill="#3A3D3D" d="M47.005 62.888c-.124 0-.249-.046-.343-.14l-1.557-1.53c-.19-.187-.193-.493-.003-.683.188-.19.497-.191.688-.003l1.557 1.53c.19.187.192.493.003.683-.095.095-.22.143-.345.143" mask="url(#umo5ps4hhv)"/>
                        </g>
                        <g transform="translate(-40 -359) translate(20 210) translate(20 149) translate(4.255 4.71)">
                            <mask id="o0mba0z98x" fill="#fff">
                                <use xlink:href="#95vbuql9qw"/>
                            </mask>
                            <path fill="#FED133" d="M27.582 34.384s-5.807 3.922-2.778 6.566c3.028 2.645 8.525 3.18 13.208 3.295 4.683.116 14.71-1.414 20.105-5.91 0 0 3.509-2.5 3.25-4.528-.257-2.027-3.46-3.388-4.979-3.662" mask="url(#o0mba0z98x)"/>
                        </g>
                        <g transform="translate(-40 -359) translate(20 210) translate(20 149) translate(4.255 4.71)">
                            <mask id="v3ds1i1urz" fill="#fff">
                                <use xlink:href="#ho4sdcwpny"/>
                            </mask>
                            <path fill="#FED133" d="M27.545 33.134S27.316 22.078 39.05 19.21c0 0 12.213-2.81 16.954 9.493 0 0-2.888 3.43-10.765 5.52-1.72.456-3.486.721-5.265.799-3.245.141-9.516.312-12.43-1.89" mask="url(#v3ds1i1urz)"/>
                        </g>
                        <g transform="translate(-40 -359) translate(20 210) translate(20 149) translate(4.255 4.71)">
                            <mask id="w7pmgvzksB" fill="#fff">
                                <use xlink:href="#c0a1nzz4hA"/>
                            </mask>
                            <path fill="#FEB400" d="M27.903 37.08s-.394-3.042-.358-3.946c0 0 4.25 2.993 16.383.822 0 0 7.26-1.458 12.076-5.251l.698 3.03s.512 1.25-1.421 2.402c-1.934 1.152-6.65 3.77-13.692 4.576 0 0-10.018 1.118-13.686-1.632" mask="url(#w7pmgvzksB)"/>
                        </g>
                        <g transform="translate(-40 -359) translate(20 210) translate(20 149) translate(4.255 4.71)">
                            <mask id="2p307gp5vD" fill="#fff">
                                <use xlink:href="#jiprtq378C"/>
                            </mask>
                            <path fill="#FEB400" d="M40.117 19.077c1.32.096 2.443.606 3.423 1.408 2.142 1.755 3.46 4.01 4.512 6.415.891 2.035 1.508 4.147 1.867 6.32.008.052.07.096.108.144-.173.184-.464.09-.653.235-.255-.203-.257-.493-.314-.764-.649-3.098-1.624-6.093-3.398-8.816-.998-1.533-2.133-2.964-3.947-3.786-1.488-.675-2.991-.465-4.18.594-.828.738-1.373 1.64-1.779 2.618-.886 2.131-1.235 4.353-1.28 6.627-.035 1.72.066 3.431.317 5.135.03.2.073.398-.096.568-.39-.095-.778.317-1.168.003.447.052.579-.155.51-.53-.32-1.748-.457-3.513-.37-5.281.116-2.384.429-4.75 1.452-6.974.703-1.527 1.68-2.862 3.33-3.663.539-.18 1.092-.271 1.666-.253" mask="url(#2p307gp5vD)"/>
                        </g>
                        <g transform="translate(-40 -359) translate(20 210) translate(20 149) translate(4.255 4.71)">
                            <mask id="86t7zb88bF" fill="#fff">
                                <use xlink:href="#2kbwve44cE"/>
                            </mask>
                            <path fill="#03BF6B" d="M75.507 64.48s-7.374 13.957-29.474 13.913c-.194.005.192-.003 0 0-.191-.002.194.005 0 0-22.1.085-29.5-13.859-29.5-13.859s-4.174 4.322-3.812 8.929c0 0 10.556 13.265 33.32 13.224 22.374 0 33.296-13.285 33.296-13.285.352-4.608-3.83-8.922-3.83-8.922" mask="url(#86t7zb88bF)"/>
                        </g>
                        <g transform="translate(-40 -359) translate(20 210) translate(20 149) translate(4.255 4.71)">
                            <mask id="u20jipoglH" fill="#fff">
                                <use xlink:href="#ee2njldczG"/>
                            </mask>
                            <path fill="#E5E6E8" d="M60.53 76.037s2.83 1.93 4.154 7.177c0 0 6.184-1.905 9.899-5.52 0 0-1.663-5.692-3.998-7.48 0 0-7.183 4.499-10.055 5.823" mask="url(#u20jipoglH)"/>
                        </g>
                        <g transform="translate(-40 -359) translate(20 210) translate(20 149) translate(4.255 4.71)">
                            <mask id="izaljhl94J" fill="#fff">
                                <use xlink:href="#ksxgk150sI"/>
                            </mask>
                            <path fill="#03BF6B" d="M70.69 75.537l-1.598-.039-.728-1.64c-.069-.155-.222-.254-.392-.254-.169 0-.323.1-.39.254l-.726 1.642-1.598.042c-.17.005-.32.109-.385.265-.063.156-.028.335.09.456l1.196 1.215-.385 1.842c-.034.168.036.34.178.437.137.092.354.092.474.005l1.551-1.005 1.553 1.002c.141.083.331.086.474-.005.143-.093.212-.27.177-.438l-.388-1.841 1.193-1.217c.118-.121.153-.3.089-.457-.064-.156-.215-.26-.385-.264" mask="url(#izaljhl94J)"/>
                        </g>
                    </g>
                </g>
            </g>
        </g>
    </g>
</svg>
