<svg xmlns="http://www.w3.org/2000/svg" xmlns:xlink="http://www.w3.org/1999/xlink" width="100" height="100" viewBox="0 0 100 100">
    <defs>
        <path id="6yw2vumfqa" d="M0 0.625L99.377 0.625 99.377 98.613 0 98.613z"/>
        <path id="ovndas45hc" d="M.03 45.423c0 24.726 20.327 44.77 45.403 44.77 25.078 0 45.405-20.044 45.405-44.77 0-24.725-20.327-44.77-45.405-44.77C20.357.653.03 20.698.03 45.423"/>
        <path id="j1pdanl0ue" d="M.03 45.423c0 24.726 20.327 44.77 45.403 44.77 25.078 0 45.405-20.044 45.405-44.77 0-24.725-20.327-44.77-45.405-44.77C20.357.653.03 20.698.03 45.423"/>
        <path id="67h34t14pg" d="M.03 45.423c0 24.726 20.327 44.77 45.403 44.77 25.078 0 45.405-20.044 45.405-44.77 0-24.725-20.327-44.77-45.405-44.77C20.357.653.03 20.698.03 45.423"/>
        <path id="elb0nl9t5i" d="M.03 45.423c0 24.726 20.327 44.77 45.403 44.77 25.078 0 45.405-20.044 45.405-44.77 0-24.725-20.327-44.77-45.405-44.77C20.357.653.03 20.698.03 45.423"/>
        <path id="nr4xtrfdok" d="M.03 45.423c0 24.726 20.327 44.77 45.403 44.77 25.078 0 45.405-20.044 45.405-44.77 0-24.725-20.327-44.77-45.405-44.77C20.357.653.03 20.698.03 45.423"/>
        <path id="svmsbxv9fm" d="M.03 45.423c0 24.726 20.327 44.77 45.403 44.77 25.078 0 45.405-20.044 45.405-44.77 0-24.725-20.327-44.77-45.405-44.77C20.357.653.03 20.698.03 45.423"/>
        <path id="ubbnitc2yo" d="M.03 45.423c0 24.726 20.327 44.77 45.403 44.77 25.078 0 45.405-20.044 45.405-44.77 0-24.725-20.327-44.77-45.405-44.77C20.357.653.03 20.698.03 45.423"/>
        <path id="3te4avhodq" d="M.03 45.423c0 24.726 20.327 44.77 45.403 44.77 25.078 0 45.405-20.044 45.405-44.77 0-24.725-20.327-44.77-45.405-44.77C20.357.653.03 20.698.03 45.423"/>
        <path id="r22p2sj4xs" d="M.03 45.423c0 24.726 20.327 44.77 45.403 44.77 25.078 0 45.405-20.044 45.405-44.77 0-24.725-20.327-44.77-45.405-44.77C20.357.653.03 20.698.03 45.423"/>
        <path id="mg3jluxcyu" d="M.03 45.423c0 24.726 20.327 44.77 45.403 44.77 25.078 0 45.405-20.044 45.405-44.77 0-24.725-20.327-44.77-45.405-44.77C20.357.653.03 20.698.03 45.423"/>
        <path id="x28l3tkbvw" d="M.03 45.423c0 24.726 20.327 44.77 45.403 44.77 25.078 0 45.405-20.044 45.405-44.77 0-24.725-20.327-44.77-45.405-44.77C20.357.653.03 20.698.03 45.423"/>
        <path id="clgjd5pm9y" d="M.03 45.423c0 24.726 20.327 44.77 45.403 44.77 25.078 0 45.405-20.044 45.405-44.77 0-24.725-20.327-44.77-45.405-44.77C20.357.653.03 20.698.03 45.423"/>
        <path id="vbeg03co6A" d="M.03 45.423c0 24.726 20.327 44.77 45.403 44.77 25.078 0 45.405-20.044 45.405-44.77 0-24.725-20.327-44.77-45.405-44.77C20.357.653.03 20.698.03 45.423z"/>
        <path id="t03mrwmmcC" d="M.03 45.423c0 24.726 20.327 44.77 45.403 44.77 25.078 0 45.405-20.044 45.405-44.77 0-24.725-20.327-44.77-45.405-44.77C20.357.653.03 20.698.03 45.423"/>
        <path id="h6a5qpgt0E" d="M.03 45.423c0 24.726 20.327 44.77 45.403 44.77 25.078 0 45.405-20.044 45.405-44.77 0-24.725-20.327-44.77-45.405-44.77C20.357.653.03 20.698.03 45.423"/>
        <path id="z1o2kj0qiG" d="M.03 45.423c0 24.726 20.327 44.77 45.403 44.77 25.078 0 45.405-20.044 45.405-44.77 0-24.725-20.327-44.77-45.405-44.77C20.357.653.03 20.698.03 45.423"/>
    </defs>
    <g fill="none" fill-rule="evenodd">
        <g>
            <g>
                <g>
                    <g>
                        <g transform="translate(-40 -1147) translate(20 998) translate(20 149) translate(0 .074)">
                            <mask id="0tfou8ndqb" fill="#fff">
                                <use xlink:href="#6yw2vumfqa"/>
                            </mask>
                            <path fill="#EDD3FE" d="M49.69.625C22.29.625 0 22.605 0 49.619c0 27.016 22.29 48.994 49.69 48.994 27.398 0 49.688-21.978 49.688-48.994 0-27.015-22.29-48.994-49.689-48.994" mask="url(#0tfou8ndqb)"/>
                        </g>
                        <path fill="#CE82FE" d="M4.284 49.62c0-24.727 20.328-44.77 45.405-44.77s45.405 20.043 45.405 44.77c0 24.725-20.328 44.769-45.405 44.769S4.284 74.345 4.284 49.619" transform="translate(-40 -1147) translate(20 998) translate(20 149) translate(0 .074)"/>
                    </g>
                    <g>
                        <g transform="translate(-40 -1147) translate(20 998) translate(20 149) translate(4.255 4.27)">
                            <mask id="vfbf5tecxd" fill="#fff">
                                <use xlink:href="#ovndas45hc"/>
                            </mask>
                            <path fill="#FFF" d="M11.538 89.526c0-12.472 4.557-25.062 4.557-25.062-.68-2.204-1.043-4.522-1.043-6.914 0-3.571.809-6.978 2.274-10.088-3.456-1.74-4.835-6.086-3.075-9.848 1.801-3.848 6.21-5.628 9.845-3.974 1.313.598 2.346 1.561 3.044 2.73 5.084-3.351 11.413-4.648 18.274-4.648 6.86 0 13.189 1.297 18.272 4.648.7-1.169 1.732-2.132 3.045-2.73 3.636-1.654 8.043.126 9.845 3.974 1.76 3.762.38 8.108-3.075 9.848 1.466 3.11 2.273 6.517 2.273 10.088 0 2.392-.341 4.71-1.022 6.914 0 0 4.578 12.59 4.578 25.062l.861 12.572" mask="url(#vfbf5tecxd)"/>
                        </g>
                        <g transform="translate(-40 -1147) translate(20 998) translate(20 149) translate(4.255 4.27)">
                            <mask id="ycl2vxbr4f" fill="#fff">
                                <use xlink:href="#j1pdanl0ue"/>
                            </mask>
                            <path fill="#E5E6E8" d="M18.392 45.423s4.107-5.286 5.874-6.13c0 0-2.238-2.178-4.984-1.231-1.467.506-2.579 1.77-2.822 3.284-.193 1.195.078 2.728 1.932 4.077" mask="url(#ycl2vxbr4f)"/>
                        </g>
                        <g transform="translate(-40 -1147) translate(20 998) translate(20 149) translate(4.255 4.27)">
                            <mask id="al8gz6skyh" fill="#fff">
                                <use xlink:href="#67h34t14pg"/>
                            </mask>
                            <path fill="#E5E6E8" d="M72.391 45.423s-4.106-5.286-5.874-6.13c0 0 2.238-2.178 4.984-1.231 1.468.506 2.579 1.77 2.823 3.284.192 1.195-.08 2.728-1.933 4.077" mask="url(#al8gz6skyh)"/>
                        </g>
                        <g transform="translate(-40 -1147) translate(20 998) translate(20 149) translate(4.255 4.27)">
                            <mask id="y4z3lnbwrj" fill="#fff">
                                <use xlink:href="#elb0nl9t5i"/>
                            </mask>
                            <path fill="#3A3D3D" d="M40.36 52.541c0 1.135-.932 2.055-2.083 2.055-1.151 0-2.083-.92-2.083-2.055 0-1.134.932-2.055 2.083-2.055 1.151 0 2.084.92 2.084 2.055" mask="url(#y4z3lnbwrj)"/>
                        </g>
                        <g transform="translate(-40 -1147) translate(20 998) translate(20 149) translate(4.255 4.27)">
                            <mask id="8z8pkkrugl" fill="#fff">
                                <use xlink:href="#nr4xtrfdok"/>
                            </mask>
                            <path fill="#3A3D3D" d="M53.133 52.541c0 1.135-.933 2.055-2.084 2.055-1.15 0-2.083-.92-2.083-2.055 0-1.134.933-2.055 2.083-2.055 1.151 0 2.084.92 2.084 2.055" mask="url(#8z8pkkrugl)"/>
                        </g>
                        <g transform="translate(-40 -1147) translate(20 998) translate(20 149) translate(4.255 4.27)">
                            <mask id="m8aip09rmn" fill="#fff">
                                <use xlink:href="#svmsbxv9fm"/>
                            </mask>
                            <path fill="#3A3D3D" d="M46.74 57.78l-.99.976c-.581.574-1.524.574-2.106 0l-.99-.976c-.938-.925-.273-2.505 1.054-2.505h1.98c1.326 0 1.99 1.58 1.052 2.505" mask="url(#m8aip09rmn)"/>
                        </g>
                        <g transform="translate(-40 -1147) translate(20 998) translate(20 149) translate(4.255 4.27)">
                            <mask id="kbvpzbgowp" fill="#fff">
                                <use xlink:href="#ubbnitc2yo"/>
                            </mask>
                            <path fill="#3A3D3D" d="M42.949 62.857c-.134 0-.269-.055-.365-.162-.178-.2-.159-.503.044-.678l1.582-1.376v-2.214c0-.265.218-.48.487-.48.27 0 .487.215.487.48v2.43c0 .137-.06.269-.165.36l-1.748 1.52c-.092.08-.207.12-.322.12" mask="url(#kbvpzbgowp)"/>
                        </g>
                        <g transform="translate(-40 -1147) translate(20 998) translate(20 149) translate(4.255 4.27)">
                            <mask id="vtudlfctrr" fill="#fff">
                                <use xlink:href="#3te4avhodq"/>
                            </mask>
                            <path fill="#3A3D3D" d="M46.252 62.857c-.124 0-.248-.046-.343-.139l-1.555-1.52c-.19-.187-.191-.491-.003-.68.19-.187.498-.188.689-.002l1.554 1.52c.192.187.193.491.003.68-.094.094-.22.141-.345.141" mask="url(#vtudlfctrr)"/>
                        </g>
                        <g transform="translate(-40 -1147) translate(20 998) translate(20 149) translate(4.255 4.27)">
                            <mask id="ovtqrozxot" fill="#fff">
                                <use xlink:href="#r22p2sj4xs"/>
                            </mask>
                            <path fill="#3A3D3D" d="M37.387 46.658c-2.798 0-5.073 2.244-5.073 5.004 0 2.759 2.275 5.003 5.073 5.003 2.798 0 5.075-2.244 5.075-5.003 0-2.76-2.277-5.004-5.075-5.004m0 10.968c-3.334 0-6.047-2.676-6.047-5.964 0-3.288 2.713-5.964 6.047-5.964 3.335 0 6.049 2.676 6.049 5.964 0 3.288-2.714 5.964-6.049 5.964" mask="url(#ovtqrozxot)"/>
                        </g>
                        <g transform="translate(-40 -1147) translate(20 998) translate(20 149) translate(4.255 4.27)">
                            <mask id="ydbjzxtsqv" fill="#fff">
                                <use xlink:href="#mg3jluxcyu"/>
                            </mask>
                            <path fill="#3A3D3D" d="M51.813 46.658c-2.797 0-5.074 2.244-5.074 5.004 0 2.759 2.277 5.003 5.074 5.003 2.798 0 5.074-2.244 5.074-5.003 0-2.76-2.276-5.004-5.074-5.004m0 10.968c-3.334 0-6.048-2.676-6.048-5.964 0-3.288 2.714-5.964 6.048-5.964 3.335 0 6.048 2.676 6.048 5.964 0 3.288-2.713 5.964-6.048 5.964" mask="url(#ydbjzxtsqv)"/>
                        </g>
                        <g transform="translate(-40 -1147) translate(20 998) translate(20 149) translate(4.255 4.27)">
                            <mask id="yzp8is5rgx" fill="#fff">
                                <use xlink:href="#x28l3tkbvw"/>
                            </mask>
                            <path fill="#3A3D3D" d="M46.252 52.142h-3.303c-.269 0-.487-.215-.487-.48s.218-.48.487-.48h3.303c.27 0 .487.215.487.48s-.218.48-.487.48" mask="url(#yzp8is5rgx)"/>
                        </g>
                        <g transform="translate(-40 -1147) translate(20 998) translate(20 149) translate(4.255 4.27)">
                            <mask id="q8fk3c9lrz" fill="#fff">
                                <use xlink:href="#clgjd5pm9y"/>
                            </mask>
                            <path fill="#4B4B4B" d="M36.005 37.647c3.13 1.28 9.672 3.065 17.347.026 1.323-.524 2.171-1.812 2.171-3.217v-2.78l11.97-4.138c1.171-.405 1.186-2.033.022-2.458l-20.73-7.556c-1.349-.492-2.83-.504-4.188-.033l-20.696 7.172c-1.17.407-1.183 2.035-.018 2.458l11.67 4.24.303 3.378c.115 1.288.938 2.413 2.149 2.908" mask="url(#q8fk3c9lrz)"/>
                        </g>
                        <g transform="translate(-40 -1147) translate(20 998) translate(20 149) translate(4.255 4.27)">
                            <mask id="z5qzpez2gB" fill="#fff">
                                <use xlink:href="#vbeg03co6A"/>
                            </mask>
                            <path fill="#F5C734" d="M53.352 19.917s-.078-3.465 3.673-2.76c3.752.704 1.946 4.809 1.946 4.809l1.896 14.655s-4.311 2.114-7.515 0l1.853-16.028-1.853-.676z" mask="url(#z5qzpez2gB)"/>
                        </g>
                        <g transform="translate(-40 -1147) translate(20 998) translate(20 149) translate(4.255 4.27)">
                            <mask id="bsx3lix6vD" fill="#fff">
                                <use xlink:href="#t03mrwmmcC"/>
                            </mask>
                            <path fill="#03BF6B" d="M74.92 64.072S67.533 77.925 45.433 77.86c-.193.005.192-.003 0 0-.191-.003.194.005 0 0-22.099.064-29.485-13.79-29.485-13.79s-4.18 4.289-3.822 8.864c0 0 10.544 13.182 33.307 13.162 22.375.02 33.309-13.162 33.309-13.162.357-4.575-3.822-8.863-3.822-8.863" mask="url(#bsx3lix6vD)"/>
                        </g>
                        <g transform="translate(-40 -1147) translate(20 998) translate(20 149) translate(4.255 4.27)">
                            <mask id="a10sehintF" fill="#fff">
                                <use xlink:href="#h6a5qpgt0E"/>
                            </mask>
                            <path fill="#E5E6E8" d="M59.932 75.534s2.828 1.92 4.148 7.132c0 0 6.185-1.887 9.904-5.474 0 0-1.658-5.654-3.99-7.43 0 0-7.188 4.46-10.062 5.772" mask="url(#a10sehintF)"/>
                        </g>
                        <g transform="translate(-40 -1147) translate(20 998) translate(20 149) translate(4.255 4.27)">
                            <mask id="w45gg7404H" fill="#fff">
                                <use xlink:href="#z1o2kj0qiG"/>
                            </mask>
                            <path fill="#03BF6B" d="M70.093 75.047l-1.598-.04-.727-1.63c-.068-.154-.222-.252-.391-.252s-.323.098-.39.252l-.728 1.63-1.598.04c-.17.004-.321.108-.385.263-.064.155-.028.333.09.453l1.194 1.207-.387 1.83c-.034.166.036.337.178.433.137.091.354.091.474.006l1.552-.997 1.552.997c.141.082.33.085.473-.006.144-.09.213-.267.178-.433l-.386-1.83 1.194-1.207c.119-.12.154-.298.09-.453-.064-.155-.215-.259-.385-.263" mask="url(#w45gg7404H)"/>
                        </g>
                    </g>
                </g>
            </g>
        </g>
    </g>
</svg>
