<svg xmlns="http://www.w3.org/2000/svg" xmlns:xlink="http://www.w3.org/1999/xlink" width="100" height="100" viewBox="0 0 100 100">
    <defs>
        <path id="qynykkd8qa" d="M0 0.682L99.377 0.682 99.377 98.67 0 98.67z"/>
        <path id="26bne5h8uc" d="M.028 44.78c0 24.726 20.329 44.77 45.405 44.77 25.077 0 45.405-20.044 45.405-44.77C90.838 20.055 70.51.01 45.433.01 20.357.01.028 20.055.028 44.78"/>
        <path id="7enuf8or3e" d="M.028 44.78c0 24.726 20.329 44.77 45.405 44.77 25.077 0 45.405-20.044 45.405-44.77C90.838 20.055 70.51.01 45.433.01 20.357.01.028 20.055.028 44.78"/>
        <path id="biurei826g" d="M.028 44.78c0 24.726 20.329 44.77 45.405 44.77 25.077 0 45.405-20.044 45.405-44.77C90.838 20.055 70.51.01 45.433.01 20.357.01.028 20.055.028 44.78"/>
        <path id="j62ubqoe7i" d="M.028 44.78c0 24.726 20.329 44.77 45.405 44.77 25.077 0 45.405-20.044 45.405-44.77C90.838 20.055 70.51.01 45.433.01 20.357.01.028 20.055.028 44.78"/>
        <path id="l2s4tcg8jk" d="M.028 44.78c0 24.726 20.329 44.77 45.405 44.77 25.077 0 45.405-20.044 45.405-44.77C90.838 20.055 70.51.01 45.433.01 20.357.01.028 20.055.028 44.78"/>
        <path id="qw5epnh4gm" d="M.028 44.78c0 24.726 20.329 44.77 45.405 44.77 25.077 0 45.405-20.044 45.405-44.77C90.838 20.055 70.51.01 45.433.01 20.357.01.028 20.055.028 44.78"/>
        <path id="nvxwl2ppro" d="M.028 44.78c0 24.726 20.329 44.77 45.405 44.77 25.077 0 45.405-20.044 45.405-44.77C90.838 20.055 70.51.01 45.433.01 20.357.01.028 20.055.028 44.78"/>
        <path id="rawlg5ob5q" d="M.028 44.78c0 24.726 20.329 44.77 45.405 44.77 25.077 0 45.405-20.044 45.405-44.77C90.838 20.055 70.51.01 45.433.01 20.357.01.028 20.055.028 44.78"/>
        <path id="mlp90gglcs" d="M.028 44.78c0 24.726 20.329 44.77 45.405 44.77 25.077 0 45.405-20.044 45.405-44.77C90.838 20.055 70.51.01 45.433.01 20.357.01.028 20.055.028 44.78"/>
        <path id="9xxz998lyu" d="M.028 44.78c0 24.726 20.329 44.77 45.405 44.77 25.077 0 45.405-20.044 45.405-44.77C90.838 20.055 70.51.01 45.433.01 20.357.01.028 20.055.028 44.78"/>
        <path id="aq5dx3g6bw" d="M.028 44.78c0 24.726 20.329 44.77 45.405 44.77 25.077 0 45.405-20.044 45.405-44.77C90.838 20.055 70.51.01 45.433.01 20.357.01.028 20.055.028 44.78"/>
        <path id="gzztyycs2y" d="M.028 44.78c0 24.726 20.329 44.77 45.405 44.77 25.077 0 45.405-20.044 45.405-44.77C90.838 20.055 70.51.01 45.433.01 20.357.01.028 20.055.028 44.78"/>
        <path id="y9q1rk70dA" d="M.028 44.78c0 24.726 20.329 44.77 45.405 44.77 25.077 0 45.405-20.044 45.405-44.77C90.838 20.055 70.51.01 45.433.01 20.357.01.028 20.055.028 44.78"/>
        <path id="r07bgzt9xC" d="M.028 44.78c0 24.726 20.329 44.77 45.405 44.77 25.077 0 45.405-20.044 45.405-44.77C90.838 20.055 70.51.01 45.433.01 20.357.01.028 20.055.028 44.78"/>
        <path id="oftdrx0j3E" d="M.028 44.78c0 24.726 20.329 44.77 45.405 44.77 25.077 0 45.405-20.044 45.405-44.77C90.838 20.055 70.51.01 45.433.01 20.357.01.028 20.055.028 44.78"/>
        <path id="pyefml5fnG" d="M.028 44.78c0 24.726 20.329 44.77 45.405 44.77 25.077 0 45.405-20.044 45.405-44.77C90.838 20.055 70.51.01 45.433.01 20.357.01.028 20.055.028 44.78"/>
        <path id="op9obcfqpI" d="M.028 44.78c0 24.726 20.329 44.77 45.405 44.77 25.077 0 45.405-20.044 45.405-44.77C90.838 20.055 70.51.01 45.433.01 20.357.01.028 20.055.028 44.78"/>
        <path id="qah1jnm8cK" d="M.028 44.78c0 24.726 20.329 44.77 45.405 44.77 25.077 0 45.405-20.044 45.405-44.77C90.838 20.055 70.51.01 45.433.01 20.357.01.028 20.055.028 44.78"/>
        <path id="azk25pmjkM" d="M.028 44.78c0 24.726 20.329 44.77 45.405 44.77 25.077 0 45.405-20.044 45.405-44.77C90.838 20.055 70.51.01 45.433.01 20.357.01.028 20.055.028 44.78"/>
    </defs>
    <g fill="none" fill-rule="evenodd">
        <g>
            <g>
                <g>
                    <g>
                        <g transform="translate(-40 -753) translate(20 604) translate(20 149) translate(0 .017)">
                            <mask id="7lh3znbzfb" fill="#fff">
                                <use xlink:href="#qynykkd8qa"/>
                            </mask>
                            <path fill="#EDD3FE" d="M49.69.682C22.29.682 0 22.66 0 49.676S22.29 98.67 49.69 98.67c27.398 0 49.688-21.98 49.688-48.994C99.378 22.66 77.088.682 49.689.682" mask="url(#7lh3znbzfb)"/>
                        </g>
                        <path fill="#E7F1FF" d="M4.284 49.676c0-24.726 20.328-44.77 45.405-44.77 25.076 0 45.405 20.044 45.405 44.77 0 24.725-20.329 44.77-45.405 44.77-25.077 0-45.405-20.045-45.405-44.77" transform="translate(-40 -753) translate(20 604) translate(20 149) translate(0 .017)"/>
                        <path fill="#CE82FE" d="M4.284 49.676c0-24.726 20.328-44.77 45.405-44.77 25.076 0 45.405 20.044 45.405 44.77 0 24.725-20.329 44.77-45.405 44.77-25.077 0-45.405-20.045-45.405-44.77" transform="translate(-40 -753) translate(20 604) translate(20 149) translate(0 .017)"/>
                    </g>
                    <g>
                        <g transform="translate(-40 -753) translate(20 604) translate(20 149) translate(4.255 4.913)">
                            <mask id="35yof5g6dd" fill="#fff">
                                <use xlink:href="#26bne5h8uc"/>
                            </mask>
                            <path fill="#FFF" d="M11.537 88.883c0-12.472 4.558-25.062 4.558-25.062-.68-2.204-1.043-4.522-1.043-6.914 0-3.571.809-6.978 2.275-10.088-3.457-1.74-4.836-6.086-3.076-9.847 1.801-3.85 6.21-5.629 9.845-3.974 1.313.597 2.346 1.56 3.044 2.73 5.084-3.352 11.413-4.649 18.274-4.649 6.86 0 13.189 1.297 18.273 4.649.699-1.17 1.732-2.133 3.044-2.73 3.636-1.655 8.043.125 9.845 3.974 1.761 3.761.381 8.107-3.075 9.847 1.466 3.11 2.273 6.517 2.273 10.088 0 2.392-.342 4.71-1.021 6.914 0 0 4.577 12.59 4.577 25.062l-.988 16.711" mask="url(#35yof5g6dd)"/>
                        </g>
                        <g transform="translate(-40 -753) translate(20 604) translate(20 149) translate(4.255 4.913)">
                            <mask id="lh22qv08xf" fill="#fff">
                                <use xlink:href="#7enuf8or3e"/>
                            </mask>
                            <path fill="#E5E6E8" d="M18.392 44.78s4.106-5.286 5.874-6.129c0 0-2.238-2.179-4.984-1.232-1.467.506-2.579 1.77-2.823 3.285-.192 1.195.08 2.727 1.933 4.076" mask="url(#lh22qv08xf)"/>
                        </g>
                        <g transform="translate(-40 -753) translate(20 604) translate(20 149) translate(4.255 4.913)">
                            <mask id="t1mjtsymsh" fill="#fff">
                                <use xlink:href="#biurei826g"/>
                            </mask>
                            <path fill="#E5E6E8" d="M72.391 44.78s-4.106-5.286-5.874-6.129c0 0 2.238-2.179 4.984-1.232 1.467.506 2.579 1.77 2.823 3.285.192 1.195-.079 2.727-1.933 4.076" mask="url(#t1mjtsymsh)"/>
                        </g>
                        <g transform="translate(-40 -753) translate(20 604) translate(20 149) translate(4.255 4.913)">
                            <mask id="gdjcs7giqj" fill="#fff">
                                <use xlink:href="#j62ubqoe7i"/>
                            </mask>
                            <path fill="#3A3D3D" d="M40.36 51.898c0 1.135-.932 2.055-2.083 2.055-1.15 0-2.083-.92-2.083-2.055 0-1.134.933-2.054 2.083-2.054 1.15 0 2.084.92 2.084 2.054" mask="url(#gdjcs7giqj)"/>
                        </g>
                        <g transform="translate(-40 -753) translate(20 604) translate(20 149) translate(4.255 4.913)">
                            <mask id="lmval7rn5l" fill="#fff">
                                <use xlink:href="#l2s4tcg8jk"/>
                            </mask>
                            <path fill="#3A3D3D" d="M53.133 51.898c0 1.135-.933 2.055-2.084 2.055-1.15 0-2.083-.92-2.083-2.055 0-1.134.933-2.054 2.083-2.054 1.151 0 2.084.92 2.084 2.054" mask="url(#lmval7rn5l)"/>
                        </g>
                        <g transform="translate(-40 -753) translate(20 604) translate(20 149) translate(4.255 4.913)">
                            <mask id="zn8pq0xw3n" fill="#fff">
                                <use xlink:href="#qw5epnh4gm"/>
                            </mask>
                            <path fill="#3A3D3D" d="M46.74 57.137l-.99.977c-.582.573-1.524.573-2.106 0l-.99-.977c-.937-.925-.273-2.506 1.053-2.506h1.98c1.327 0 1.99 1.581 1.053 2.506" mask="url(#zn8pq0xw3n)"/>
                        </g>
                        <g transform="translate(-40 -753) translate(20 604) translate(20 149) translate(4.255 4.913)">
                            <mask id="vqlfazl1yp" fill="#fff">
                                <use xlink:href="#nvxwl2ppro"/>
                            </mask>
                            <path fill="#3A3D3D" d="M42.949 62.215c-.134 0-.269-.055-.365-.163-.178-.199-.159-.502.043-.677l1.583-1.377v-2.214c0-.265.218-.48.488-.48.269 0 .486.215.486.48v2.43c0 .138-.06.27-.165.36l-1.748 1.521c-.092.08-.207.12-.322.12" mask="url(#vqlfazl1yp)"/>
                        </g>
                        <g transform="translate(-40 -753) translate(20 604) translate(20 149) translate(4.255 4.913)">
                            <mask id="dke95l9nmr" fill="#fff">
                                <use xlink:href="#rawlg5ob5q"/>
                            </mask>
                            <path fill="#3A3D3D" d="M46.252 62.215c-.124 0-.248-.047-.343-.14l-1.554-1.52c-.191-.187-.193-.49-.003-.679.19-.188.497-.189.688-.003l1.554 1.52c.192.188.193.491.003.68-.094.095-.22.142-.345.142" mask="url(#dke95l9nmr)"/>
                        </g>
                        <g transform="translate(-40 -753) translate(20 604) translate(20 149) translate(4.255 4.913)">
                            <mask id="u1x5w3o0kt" fill="#fff">
                                <use xlink:href="#mlp90gglcs"/>
                            </mask>
                            <path fill="#E23244" d="M40.879 15.778c.919-.047 1.84-.09 2.76-.044 4.01.197 7.664 1.354 10.762 3.957 2.18 1.831 3.623 4.136 4.417 6.841.376 1.28.59 2.588.644 3.921-.093.095-.208.07-.319.058-1.058-.116-2.119-.187-3.183-.233-.703-.029-1.405-.046-2.105-.03-.878.02-1.756.067-2.633.13-1.225.087-2.443.222-3.656.393-2.673.376-5.307.944-7.921 1.598-1.307.326-2.612.662-3.906 1.037-.107.03-.215.074-.33.037-.15-.14-.142-.333-.169-.51-.294-2.016-.36-4.045-.29-6.076.045-1.337.233-2.665.537-3.972.305-1.31.728-2.58 1.353-3.777.595-1.139 1.303-2.2 2.304-3.044.304-.117.63-.121.949-.167.262-.038.52-.103.786-.12" mask="url(#u1x5w3o0kt)"/>
                        </g>
                        <g transform="translate(-40 -753) translate(20 604) translate(20 149) translate(4.255 4.913)">
                            <mask id="by4uanmmtv" fill="#fff">
                                <use xlink:href="#9xxz998lyu"/>
                            </mask>
                            <path fill="#CE3B35" d="M35.399 33.42c1.452-.384 2.902-.777 4.357-1.15 1.601-.41 3.215-.774 4.84-1.078 1.135-.212 2.272-.41 3.42-.551.86-.105 1.72-.21 2.584-.284.832-.07 1.668-.105 2.502-.15.767-.043 1.534-.051 2.298-.026.954.032 1.91.058 2.862.174.398.048.8.066 1.2.098.642.144 1.286.276 1.925.432 2.181.538 4.28 1.29 6.239 2.388.076.043.146.097.218.146-.12.108-.26.064-.391.038-1.26-.243-2.535-.31-3.81-.246-1.514.076-2.966.435-4.367 1.01-1.131.464-2.156 1.122-3.235 1.681-1.888.981-3.796 1.918-5.853 2.52-1.524.447-3.08.663-4.667.554-1.115-.075-2.205-.309-3.24-.749-.125-.053-.247-.12-.386-.133-.933-.439-1.82-.958-2.686-1.513-.101-.064-.19-.15-.32-.155-.008-.018-.004-.032.01-.041-.485-.233-.88-.591-1.299-.914-.66-.51-1.28-1.065-1.886-1.637-.15-.141-.316-.26-.472-.39.043-.07.097-.064.157-.024" mask="url(#by4uanmmtv)"/>
                        </g>
                        <g transform="translate(-40 -753) translate(20 604) translate(20 149) translate(4.255 4.913)">
                            <mask id="slb5jbvbtx" fill="#fff">
                                <use xlink:href="#aq5dx3g6bw"/>
                            </mask>
                            <path fill="#CC2630" d="M35.399 33.42c-.053.003-.112-.007-.148.048-.092.108-.229.11-.35.141-1.876.483-3.71 1.08-5.48 1.867-.658.308-1.322.607-1.953.97-.07.04-.136.086-.22.09-.174-.28-.231-.605-.322-.912-.542-1.85-.877-3.733-.84-5.666.084-4.413 1.86-8 5.418-10.697 2.08-1.578 4.444-2.553 6.998-3.1.078-.016.162-.017.219-.085.159-.069.31-.05.456.038-.602.521-1.093 1.134-1.54 1.787-.611.895-1.073 1.858-1.449 2.867-.347.93-.608 1.886-.787 2.861-.171.934-.288 1.874-.352 2.823-.076 1.138-.054 2.275-.026 3.41.023.937.125 1.876.263 2.808.038.25.07.501.113.75" mask="url(#slb5jbvbtx)"/>
                        </g>
                        <g transform="translate(-40 -753) translate(20 604) translate(20 149) translate(4.255 4.913)">
                            <mask id="fuj7bf64fz" fill="#fff">
                                <use xlink:href="#gzztyycs2y"/>
                            </mask>
                            <path fill="#CC2630" d="M68.583 33.893c.58.432.91 1.02 1.065 1.705.203.904.046 1.736-.562 2.465-.651.78-1.472 1.014-2.447.737-.863-.247-1.586-.74-2.266-1.292-.518-.419-1.007-.871-1.519-1.297-.876-.728-1.837-1.313-2.924-1.687-.049-.087.015-.11.078-.134 1.144-.431 2.322-.72 3.541-.85.475-.051.95-.053 1.425-.08.561-.031 1.126.04 1.688.092.523.049 1.038.143 1.555.222.132.02.243.08.366.119" mask="url(#fuj7bf64fz)"/>
                        </g>
                        <g transform="translate(-40 -753) translate(20 604) translate(20 149) translate(4.255 4.913)">
                            <mask id="x8k0iyrhqB" fill="#fff">
                                <use xlink:href="#y9q1rk70dA"/>
                            </mask>
                            <path fill="#E23244" d="M68.583 33.893c-.435-.066-.87-.13-1.303-.2-.332-.052-.668-.09-1-.116-.847-.064-1.697-.054-2.546.025-.648.061-1.287.16-1.92.3-.524.117-1.039.277-1.536.48-.115.047-.269.012-.348.142-.603.211-1.162.51-1.716.819-2.01 1.115-4.037 2.19-6.21 2.973-1.702.614-3.446 1.014-5.27.974-1.703-.037-3.314-.45-4.84-1.197.257-.048.456.12.674.191.765.252 1.54.432 2.338.553.774.118 1.547.107 2.315.068.922-.047 1.829-.237 2.719-.487 1.273-.356 2.501-.83 3.694-1.392 1.12-.527 2.227-1.082 3.307-1.683.666-.37 1.324-.753 2.023-1.062.884-.391 1.802-.685 2.746-.89 1.226-.268 2.475-.305 3.724-.247.71.034 1.422.114 2.12.268.093.021.193.006.29.006.27.123.508.293.74.475" mask="url(#x8k0iyrhqB)"/>
                        </g>
                        <g transform="translate(-40 -753) translate(20 604) translate(20 149) translate(4.255 4.913)">
                            <mask id="xt3f8fws5D" fill="#fff">
                                <use xlink:href="#r07bgzt9xC"/>
                            </mask>
                            <path fill="#CC2630" d="M39.177 16.114c-.153 0-.308.015-.457-.038-.23-.077-.303-.248-.27-.468.033-.216.184-.325.395-.355.54-.077 1.082-.152 1.623-.222.201-.027.366.047.473.219.117.19.063.364-.063.528-.26.175-.57.132-.856.193-.28.06-.57.051-.845.143" mask="url(#xt3f8fws5D)"/>
                        </g>
                        <g transform="translate(-40 -753) translate(20 604) translate(20 149) translate(4.255 4.913)">
                            <mask id="z6vrd9sskF" fill="#fff">
                                <use xlink:href="#oftdrx0j3E"/>
                            </mask>
                            <path fill="#E5E6E8" d="M40.525 58.544c0 2.359-1.939 4.27-4.33 4.27-2.393 0-4.333-1.911-4.333-4.27 0-2.36 1.94-4.272 4.332-4.272s4.331 1.913 4.331 4.272" mask="url(#z6vrd9sskF)"/>
                        </g>
                        <g transform="translate(-40 -753) translate(20 604) translate(20 149) translate(4.255 4.913)">
                            <mask id="6f6r0q1p5H" fill="#fff">
                                <use xlink:href="#pyefml5fnG"/>
                            </mask>
                            <path fill="#E5E6E8" d="M58.065 58.544c0 2.359-1.94 4.27-4.332 4.27s-4.332-1.911-4.332-4.27c0-2.36 1.94-4.272 4.332-4.272 2.393 0 4.332 1.913 4.332 4.272" mask="url(#6f6r0q1p5H)"/>
                        </g>
                        <g transform="translate(-40 -753) translate(20 604) translate(20 149) translate(4.255 4.913)">
                            <mask id="d8vsuge88J" fill="#fff">
                                <use xlink:href="#op9obcfqpI"/>
                            </mask>
                            <path fill="#03BF6B" d="M74.899 63.504s-7.387 13.853-29.487 13.79c-.194.005.192-.003 0 0-.192-.003.194.005 0 0-22.099.063-29.486-13.79-29.486-13.79s-4.179 4.288-3.821 8.864c0 0 10.544 13.182 33.307 13.161 22.375.02 33.308-13.161 33.308-13.161.358-4.576-3.821-8.864-3.821-8.864" mask="url(#d8vsuge88J)"/>
                        </g>
                        <g transform="translate(-40 -753) translate(20 604) translate(20 149) translate(4.255 4.913)">
                            <mask id="87wtilccpL" fill="#fff">
                                <use xlink:href="#qah1jnm8cK"/>
                            </mask>
                            <path fill="#E5E6E8" d="M59.911 74.967s2.828 1.919 4.148 7.131c0 0 6.186-1.886 9.903-5.474 0 0-1.656-5.653-3.99-7.43 0 0-7.187 4.461-10.06 5.773" mask="url(#87wtilccpL)"/>
                        </g>
                        <g transform="translate(-40 -753) translate(20 604) translate(20 149) translate(4.255 4.913)">
                            <mask id="z3a1hc09lN" fill="#fff">
                                <use xlink:href="#azk25pmjkM"/>
                            </mask>
                            <path fill="#03BF6B" d="M70.072 74.48l-1.598-.04-.727-1.63c-.068-.154-.222-.252-.391-.252s-.323.098-.392.251l-.726 1.63-1.598.04c-.17.005-.32.108-.385.263-.064.156-.029.334.09.453l1.193 1.208-.386 1.83c-.034.166.035.337.178.433.137.09.354.09.474.006l1.552-.998 1.551.998c.142.082.332.085.474-.006.144-.091.213-.267.178-.434l-.386-1.829 1.194-1.208c.119-.12.154-.297.09-.453-.064-.155-.215-.258-.385-.262" mask="url(#z3a1hc09lN)"/>
                        </g>
                    </g>
                </g>
            </g>
        </g>
    </g>
</svg>
