<svg xmlns="http://www.w3.org/2000/svg" width="154" height="54" viewBox="0 0 154 54">
    <g fill="none" fill-rule="evenodd">
        <g>
            <g>
                <path d="M0 0H154V54H0z" transform="translate(-20 -155) translate(20 155)"/>
                <path fill="#FFF" d="M136.454 3.006c3.3-3.106 8.476-3.106 11.777 0l.172.167 2.802 2.787.168.171c3.124 3.283 3.124 8.43 0 11.712l-.168.17-2.802 2.788-.172.167c-3.3 3.106-8.476 3.106-11.777 0l-.172-.167-2.802-2.787-.167-.171c-3.124-3.283-3.124-8.43 0-11.712l.167-.17 2.802-2.788.172-.167zm-14.658-1.953c2.001 0 3.772.411 5.261 1.223.375.2.666.472.86.807.192.333.29.694.29 1.075 0 .616-.207 1.157-.616 1.612-.675.755-1.658.92-2.753.435-.97-.41-1.996-.62-3.042-.62-1.138 0-2.201.291-3.16.865-.963.576-1.738 1.364-2.3 2.342-.562.975-.847 2.055-.847 3.21 0 1.155.285 2.235.847 3.21.562.977 1.336 1.765 2.3 2.342.959.574 2.022.865 3.16.865.515 0 1.075-.047 1.663-.139.306-.047.594-.102.863-.165l.262-.066.054-.07v-2.712l-.073-.073h-2.129l-.174-.005c-.572-.036-1.063-.25-1.464-.637-.445-.43-.67-.975-.67-1.624 0-.65.226-1.194.67-1.624.401-.388.893-.601 1.464-.637l.174-.005h4.773l.16.004c.582.035 1.076.257 1.473.663.39.4.604.887.64 1.455l.006.173v6.136l-.005.159c-.047.785-.441 1.422-1.152 1.855-1.977 1.223-4.176 1.844-6.535 1.844-2.008 0-3.89-.497-5.592-1.475-1.702-.977-3.07-2.316-4.063-3.98-.996-1.667-1.5-3.515-1.5-5.494 0-1.98.504-3.827 1.5-5.495.992-1.662 2.359-3 4.063-3.98 1.704-.978 3.586-1.474 5.592-1.474zm-85.342.037c.689 0 1.277.225 1.751.669.485.456.731 1.04.731 1.741 0 .679-.25 1.262-.725 1.691-.423.385-.954.596-1.583.629l-.174.004h-7.196l-.074.074v3.444l.074.073h7.097l.17.005c.616.034 1.147.257 1.582.664.486.456.731 1.04.731 1.742 0 .678-.25 1.261-.725 1.691-.424.385-.955.596-1.584.628l-.174.005h-7.097l-.074.073v3.883l.074.073h7.196l.172.005c.622.037 1.156.274 1.593.707.477.474.717 1.034.717 1.67 0 .677-.255 1.265-.738 1.705-.434.394-.962.61-1.575.643l-.17.004h-9.84l-.172-.005c-.625-.036-1.16-.274-1.594-.708-.437-.433-.675-.964-.712-1.585l-.005-.171V3.559l.005-.171c.037-.62.275-1.151.712-1.586.435-.433.97-.67 1.594-.707l.172-.005h9.84zm22.998-.029c.552 0 1.049.16 1.484.476l.143.112.125.11.112.113c.392.414.607.91.643 1.484l.005.174v16.914l-.005.17c-.035.617-.266 1.147-.689 1.58-.467.477-1.077.72-1.818.72-.734 0-1.344-.233-1.819-.692-.44-.426-.68-.963-.718-1.602l-.005-.176V11.22l-.135-.04-3.484 5.285-.128.145c-.22.234-.466.43-.738.587-.367.21-.744.304-1.142.282-.37.02-.746-.076-1.107-.282-.27-.155-.516-.35-.733-.582l-.128-.144-.05-.068-3.438-5.408-.135.04v9.408l-.005.174c-.034.629-.253 1.16-.654 1.582-.447.473-1.03.713-1.737.713-.68 0-1.272-.254-1.714-.735-.396-.43-.613-.955-.647-1.566l-.004-.168V3.53l.005-.168c.039-.606.29-1.137.747-1.581.496-.478 1.096-.72 1.79-.72.4 0 .8.098 1.19.291.352.176.637.404.853.681l.089.122 5.775 8.826h.123l5.935-8.826.097-.135c.205-.263.464-.482.773-.653.367-.203.752-.306 1.144-.306zm-40.857 0l.166.005c.6.036 1.133.268 1.587.694.465.439.718.978.755 1.61l.004.16v16.914l-.005.17c-.035.617-.266 1.146-.689 1.58-.467.477-1.078.719-1.818.719-.734 0-1.345-.232-1.819-.69-.44-.427-.68-.964-.718-1.602l-.005-.177v-9.222l-.135-.04-3.485 5.284-.128.145c-.218.234-.464.43-.737.586-.362.208-.748.303-1.142.284-.368.02-.75-.078-1.106-.284-.27-.154-.517-.349-.734-.58l-.128-.145-.05-.068-3.438-5.408-.136.04v9.408l-.005.174c-.033.629-.253 1.16-.653 1.582-.447.473-1.03.713-1.736.713-.682 0-1.274-.254-1.715-.735-.396-.43-.613-.955-.646-1.565l-.005-.169V3.53l.005-.167c.039-.607.29-1.138.748-1.582.495-.478 1.095-.72 1.789-.72.4 0 .8.098 1.19.291.35.175.637.404.853.68l.088.123 5.776 8.826.123.001 5.935-8.827.097-.135c.204-.263.464-.482.773-.654.263-.144.534-.238.81-.28l.167-.019.167-.006zm87.66.13c.543 0 1.025.163 1.413.474l.114.098.108.107.107.122c.307.373.478.818.509 1.328l.005.172v16.874l-.005.17c-.036.614-.273 1.14-.704 1.57-.472.469-1.06.706-1.75.706-.343 0-.685-.055-1.016-.165-.347-.115-.622-.283-.82-.503l-.08-.097-9.317-11.765-.132.045v10.184l-.005.174c-.036.57-.25 1.058-.639 1.457-.433.445-.993.67-1.67.67-.651 0-1.215-.235-1.634-.679-.375-.397-.582-.883-.616-1.45l-.005-.172V3.637l.005-.17c.036-.613.273-1.14.705-1.57.47-.468 1.057-.705 1.75-.705.378 0 .755.075 1.12.225.352.146.634.344.84.592l.084.11 9.217 11.683.132-.045V3.492l.004-.16c.033-.575.248-1.07.64-1.471.426-.438.992-.67 1.64-.67zm-21.593 0l.165.005c.599.036 1.123.269 1.563.694.445.431.689.96.726 1.577l.005.17v16.73l-.004.159c-.037.628-.295 1.165-.77 1.6-.496.455-1.082.686-1.743.686-.712 0-1.31-.237-1.78-.706-.431-.43-.668-.956-.704-1.57l-.005-.17V3.637l.005-.17c.038-.618.281-1.146.726-1.577.4-.386.89-.614 1.462-.679l.175-.015.179-.004zm-16.356 0c.668 0 1.248.235 1.728.7.446.43.689.958.726 1.575l.006.17v14.355l.073.074h6.839l.168.004c.61.034 1.135.255 1.566.659.484.46.724 1.034.724 1.725 0 .675-.242 1.244-.723 1.695-.43.404-.956.625-1.567.659l-.168.005h-9.46l-.17-.005c-.619-.037-1.148-.272-1.58-.702-.431-.428-.667-.955-.704-1.569l-.005-.17V3.636l.005-.17c.038-.616.281-1.145.727-1.575.48-.464 1.09-.7 1.815-.7zm76.698 5.553c-1.59-1.323-3.938-1.283-5.482.12l-.138.132-2.08 2.069-.129.133c-1.456 1.58-1.458 4.013-.004 5.595l.132.137 2.08 2.069.135.128c1.59 1.448 4.034 1.45 5.625.003l.138-.131 2.08-2.069.129-.133c1.455-1.581 1.457-4.013.003-5.595l-.132-.137-2.08-2.07-.134-.127-.143-.124zm-2.661 1.952c.128 0 .247.065.316.17l.03.055.77 1.74.065.044 1.69.042.064.007c.124.025.23.11.278.228.048.12.032.253-.04.356l-.04.048-1.263 1.29.388 2.018.008.064c.005.129-.056.253-.163.322-.103.066-.24.078-.356.036l-.068-.032-1.639-1.062h-.08l-1.642 1.064-.05.027c-.11.046-.27.035-.37-.033-.108-.073-.17-.195-.165-.322l.008-.064.408-1.953-1.282-1.354-.041-.05c-.072-.102-.088-.236-.04-.355.05-.119.154-.203.279-.228l.063-.007 1.69-.042.066-.044.77-1.74.03-.056c.069-.104.187-.169.316-.169z" transform="translate(-20 -155) translate(20 155)"/>
                <path fill="#FFF" fill-rule="nonzero" d="M6.571 49.828c.613 0 1.213-.122 1.801-.366.588-.244 1.06-.542 1.415-.896.245-.207.367-.439.367-.695 0-.195-.07-.366-.21-.512-.142-.146-.316-.22-.525-.22-.171 0-.349.055-.533.165-.281.268-.606.488-.973.658-.368.171-.846.257-1.434.257-.857 0-1.583-.269-2.177-.805-.594-.537-.934-1.25-1.02-2.14H9.75c.233 0 .435-.076.607-.229.171-.152.263-.338.275-.558-.012-.878-.226-1.67-.643-2.377-.417-.708-.968-1.262-1.654-1.665-.686-.402-1.42-.603-2.205-.603-.796 0-1.54.207-2.232.621-.692.415-1.25 1.01-1.672 1.784-.423.774-.634 1.673-.634 2.698 0 .938.205 1.78.615 2.524.41.743.992 1.323 1.746 1.737.753.415 1.626.622 2.618.622zm2.205-6.017h-5.42c.159-.805.49-1.4.992-1.784.502-.384 1.096-.576 1.782-.576.662 0 1.253.207 1.773.622.521.415.812.945.873 1.591v.147zm7.13 6.017c.6 0 1.167-.113 1.7-.338.532-.226.964-.549 1.295-.97.33-.42.496-.917.496-1.49 0-.622-.147-1.125-.441-1.51-.294-.383-.655-.673-1.084-.868-.429-.195-.968-.378-1.617-.549-.747-.195-1.302-.396-1.663-.603-.361-.208-.548-.525-.56-.951 0-.452.162-.772.486-.96.325-.19.72-.284 1.186-.284.453 0 .866.079 1.24.238.374.158.689.384.946.676.135.147.313.22.533.22.184 0 .337-.055.46-.165.195-.183.294-.372.294-.567 0-.183-.074-.36-.221-.53-.367-.451-.842-.787-1.424-1.006-.582-.22-1.167-.33-1.755-.33-.612 0-1.179.116-1.7.348-.52.232-.937.555-1.25.97-.311.414-.468.896-.468 1.444 0 .622.157 1.125.469 1.51.312.383.695.676 1.148.877.454.201 1.023.394 1.71.576.698.183 1.227.385 1.589.604.361.22.542.537.542.951 0 .451-.178.777-.533.979-.355.2-.766.308-1.231.32-.588 0-1.094-.104-1.516-.311-.423-.208-.818-.518-1.185-.933-.184-.183-.386-.274-.607-.274-.159 0-.3.042-.422.128-.258.17-.386.378-.386.622 0 .158.055.323.165.493.453.586 1.008 1.012 1.663 1.28.655.269 1.369.403 2.14.403zm6.376 3.475c.257 0 .468-.085.634-.256.165-.17.248-.378.248-.622v-4.06c.343.402.79.744 1.341 1.024.552.28 1.146.42 1.783.42.808 0 1.55-.213 2.223-.64.674-.426 1.204-1.014 1.59-1.764.385-.75.578-1.6.578-2.552 0-.951-.193-1.805-.579-2.56-.385-.757-.915-1.345-1.589-1.766-.674-.42-1.427-.63-2.26-.63-.637 0-1.237.152-1.8.457-.564.305-.993.67-1.287 1.097v-.53c0-.256-.083-.47-.248-.64-.166-.171-.377-.257-.634-.257s-.466.086-.625.257c-.16.17-.239.384-.239.64v11.504c0 .256.083.467.248.631.166.165.37.247.616.247zm3.767-5.103c-.576 0-1.09-.143-1.544-.43-.453-.286-.805-.685-1.056-1.198-.251-.512-.377-1.085-.377-1.719 0-.634.126-1.207.377-1.72.25-.511.603-.91 1.056-1.197.454-.287.968-.43 1.544-.43.563 0 1.072.146 1.525.439.453.293.805.692 1.056 1.198.252.506.377 1.076.377 1.71 0 .634-.125 1.204-.377 1.71-.25.506-.603.906-1.056 1.198-.453.293-.962.44-1.525.44zm11.043 1.628c.613 0 1.213-.122 1.8-.366.589-.244 1.06-.542 1.416-.896.245-.207.367-.439.367-.695 0-.195-.07-.366-.211-.512-.14-.146-.316-.22-.524-.22-.171 0-.349.055-.533.165-.281.268-.606.488-.973.658-.368.171-.846.257-1.434.257-.857 0-1.583-.269-2.177-.805-.594-.537-.934-1.25-1.02-2.14h6.468c.233 0 .435-.076.606-.229.172-.152.264-.338.276-.558-.012-.878-.227-1.67-.643-2.377-.417-.708-.968-1.262-1.654-1.665-.686-.402-1.42-.603-2.205-.603-.796 0-1.54.207-2.232.621-.693.415-1.25 1.01-1.673 1.784-.422.774-.634 1.673-.634 2.698 0 .938.206 1.78.616 2.524.41.743.992 1.323 1.746 1.737.753.415 1.626.622 2.618.622zm2.205-6.017h-5.42c.159-.805.49-1.4.992-1.784.502-.384 1.096-.576 1.782-.576.662 0 1.253.207 1.773.622.52.415.812.945.873 1.591v.147zm4.74 5.834c.258 0 .47-.085.635-.256.165-.17.248-.378.248-.622V44.36c0-.56.113-1.07.34-1.527.226-.457.52-.817.882-1.08.361-.261.732-.392 1.111-.392.148 0 .35.042.607.128.22.073.386.11.496.11.22 0 .407-.077.56-.23.154-.152.23-.374.23-.667 0-.244-.116-.448-.349-.613-.233-.164-.508-.246-.827-.246-.686.012-1.298.204-1.837.576-.54.372-.944.856-1.213 1.454v-.933c0-.244-.083-.451-.248-.622-.166-.17-.377-.256-.634-.256-.245 0-.45.085-.616.256-.165.17-.248.378-.248.622v7.828c0 .256.08.467.24.631.158.165.367.247.624.247zm10.585.183c.637 0 1.231-.15 1.782-.448.551-.299.986-.662 1.305-1.088v.475c0 .256.08.467.239.631.159.165.367.247.624.247.258 0 .47-.085.634-.256.166-.17.248-.378.248-.622V40.83c0-.268-.082-.484-.248-.65-.165-.164-.376-.246-.634-.246-.257 0-.465.085-.624.256-.16.17-.24.384-.24.64v.44c-.33-.415-.774-.757-1.331-1.025-.558-.268-1.161-.402-1.81-.402-.809 0-1.55.213-2.224.64-.673.426-1.203 1.02-1.59 1.783-.385.762-.578 1.619-.578 2.57 0 .95.193 1.807.579 2.57.386.762.919 1.356 1.599 1.783.68.427 1.436.64 2.269.64zm.202-1.61c-.576 0-1.087-.146-1.534-.438-.447-.293-.797-.695-1.048-1.208-.25-.512-.376-1.09-.376-1.737 0-.646.125-1.226.376-1.738s.6-.914 1.048-1.207c.447-.293.958-.439 1.534-.439.576 0 1.087.15 1.534.448.447.299.797.704 1.048 1.217.25.512.376 1.085.376 1.719 0 .646-.125 1.225-.376 1.737-.251.513-.6.915-1.048 1.208-.447.292-.958.439-1.534.439zm14.553 1.427c.257 0 .469-.085.634-.256.165-.17.248-.378.248-.622v-4.975c0-2.634-1.103-3.95-3.308-3.95-.649 0-1.258.167-1.828.503-.57.335-1.014.746-1.332 1.234v-.64c0-.244-.083-.451-.248-.622-.165-.17-.377-.256-.634-.256-.245 0-.45.085-.616.256-.165.17-.248.378-.248.622v7.828c0 .256.08.467.24.631.159.165.367.247.624.247s.469-.085.634-.256c.165-.17.248-.378.248-.622v-4.956c0-.427.113-.82.34-1.18.227-.36.539-.646.937-.86.398-.213.842-.32 1.332-.32.747 0 1.286.213 1.617.64.331.427.496 1 .496 1.72v4.956c0 .244.083.451.248.622.166.17.371.256.616.256zm6.762 0c.368 0 .698-.091.992-.274.294-.183.441-.403.441-.659 0-.207-.055-.378-.165-.512-.11-.134-.245-.201-.404-.201-.086 0-.203.021-.35.064-.147.043-.263.064-.349.064-.55 0-.826-.305-.826-.914v-5.451h1.525c.232 0 .425-.073.578-.22.154-.146.23-.335.23-.566 0-.232-.076-.424-.23-.577-.153-.152-.346-.228-.578-.228h-1.525v-1.537c0-.243-.083-.45-.249-.621-.165-.171-.37-.257-.615-.257-.257 0-.469.086-.634.257-.165.17-.248.378-.248.621v1.537h-1.066c-.233 0-.426.073-.579.22-.153.146-.23.335-.23.566 0 .232.077.424.23.576.153.153.346.229.58.229h1.065v5.524c0 .707.132 1.234.395 1.582.263.347.563.564.9.65.337.084.708.127 1.112.127zm7.975.183c.894 0 1.712-.213 2.453-.64.74-.427 1.326-1.018 1.755-1.774.428-.756.643-1.61.643-2.56 0-.952-.215-1.812-.643-2.58-.43-.768-1.014-1.366-1.755-1.792-.741-.427-1.559-.64-2.453-.64-.895 0-1.712.213-2.453.64-.741.426-1.326 1.024-1.755 1.792-.429.768-.643 1.628-.643 2.58 0 .95.214 1.804.643 2.56.429.756 1.014 1.347 1.755 1.774.74.427 1.558.64 2.453.64zm0-1.61c-.576 0-1.1-.143-1.571-.43-.472-.286-.846-.685-1.121-1.197-.276-.512-.414-1.092-.414-1.738 0-.658.138-1.247.414-1.765.275-.518.65-.92 1.12-1.207.472-.287.996-.43 1.572-.43.575 0 1.1.143 1.57.43.472.286.846.689 1.122 1.207.275.518.413 1.107.413 1.765 0 .646-.138 1.226-.413 1.738-.276.512-.65.911-1.121 1.198-.472.286-.996.43-1.571.43z" transform="translate(-20 -155) translate(20 155)"/>
            </g>
        </g>
    </g>
</svg>
