<svg width="25" height="25" viewBox="0 0 25 25" fill="none" xmlns="http://www.w3.org/2000/svg">
<g clip-path="url(#clip0_205_371)">
<path d="M17 3.26416C15.26 3.26416 13.59 4.07416 12.5 5.35416C11.41 4.07416 9.74 3.26416 8 3.26416C4.92 3.26416 2.5 5.68416 2.5 8.76416C2.5 12.5442 5.9 15.6242 11.05 20.3042L12.5 21.6142L13.95 20.2942C19.1 15.6242 22.5 12.5442 22.5 8.76416C22.5 5.68416 20.08 3.26416 17 3.26416ZM12.6 18.8142L12.5 18.9142L12.4 18.8142C7.64 14.5042 4.5 11.6542 4.5 8.76416C4.5 6.76416 6 5.26416 8 5.26416C9.54 5.26416 11.04 6.25416 11.57 7.62416H13.44C13.96 6.25416 15.46 5.26416 17 5.26416C19 5.26416 20.5 6.76416 20.5 8.76416C20.5 11.6542 17.36 14.5042 12.6 18.8142Z" fill="#4B4B4B"/>
</g>
<defs>
<clipPath id="clip0_205_371">
<rect width="24" height="24" fill="white" transform="translate(0.5 0.26416)"/>
</clipPath>
</defs>
</svg>
