<svg width="11" height="11" viewBox="0 0 11 11" fill="none" xmlns="http://www.w3.org/2000/svg">
<path d="M5.21697 0.916483C5.39844 0.35798 6.18857 0.35798 6.37004 0.916483L7.15452 3.33086C7.23567 3.58064 7.46843 3.74974 7.73105 3.74974H10.2697C10.8569 3.74974 11.1011 4.5012 10.626 4.84638L8.57221 6.33855C8.35974 6.49291 8.27083 6.76654 8.35199 7.01631L9.13647 9.43069C9.31794 9.98919 8.67871 10.4536 8.20362 10.1084L6.14982 8.61628C5.93735 8.46191 5.64965 8.46191 5.43718 8.61628L3.38339 10.1084C2.9083 10.4536 2.26907 9.98919 2.45053 9.43069L3.23501 7.01631C3.31617 6.76654 3.22726 6.49291 3.0148 6.33855L0.961001 4.84638C0.48591 4.5012 0.730075 3.74974 1.31732 3.74974H3.85595C4.11857 3.74974 4.35133 3.58064 4.43249 3.33086L5.21697 0.916483Z" fill="#57CC02"/>
</svg>
