<svg width="30" height="29" viewBox="0 0 30 29" fill="none" xmlns="http://www.w3.org/2000/svg">
<path d="M3.05718 28.1696C1.44695 28.1696 0.499756 27.1845 0.499756 25.4985V3.78879C0.499756 1.47763 1.86372 0.0947266 4.19382 0.0947266C6.18293 0.0947266 7.28168 0.928259 8.11521 3.04998L14.8971 19.8532H15.0487L21.8117 3.04998C22.6452 0.947203 23.7629 0.0947266 25.7709 0.0947266C28.0821 0.0947266 29.4461 1.45869 29.4461 3.78879V25.4985C29.4461 27.1845 28.4989 28.1696 26.8886 28.1696C25.2784 28.1696 24.3501 27.1845 24.3501 25.4985V9.3583H24.1986L17.4356 25.8963C16.9431 27.1087 16.1853 27.6392 14.9918 27.6392C13.7794 27.6392 12.9838 27.0898 12.5102 25.9153L5.74722 9.3583H5.59567V25.4985C5.59567 27.1845 4.66742 28.1696 3.05718 28.1696Z" fill="#57CC02"/>
</svg>
