<svg width="20" height="28" viewBox="0 0 20 28" fill="none" xmlns="http://www.w3.org/2000/svg">
<path d="M3.56219 27.6774C1.76252 27.6774 0.70166 26.5786 0.70166 24.6842V3.3155C0.70166 1.44006 1.76252 0.341309 3.56219 0.341309H16.5577C18.1301 0.341309 19.153 1.23167 19.153 2.7093C19.153 4.18692 18.1111 5.07729 16.5577 5.07729H6.42272V11.6508H16.0652C17.486 11.6508 18.4521 12.4844 18.4521 13.8483C18.4521 15.2123 17.5049 16.0458 16.0652 16.0458H6.42272V22.9414H16.5577C18.1111 22.9414 19.153 23.8318 19.153 25.3094C19.153 26.787 18.1301 27.6774 16.5577 27.6774H3.56219Z" fill="#57CC02"/>
</svg>
