<svg width="30" height="30" viewBox="0 0 30 30" fill="none" xmlns="http://www.w3.org/2000/svg">
<path d="M3.20855 29.0373C1.59832 29.0373 0.651123 28.0522 0.651123 26.3662V4.65647C0.651123 2.34531 2.01508 0.962402 4.34519 0.962402C6.3343 0.962402 7.43304 1.79593 8.26658 3.91765L15.0485 20.7209H15.2L21.963 3.91765C22.7966 1.81488 23.9143 0.962402 25.9223 0.962402C28.2335 0.962402 29.5974 2.32636 29.5974 4.65647V26.3662C29.5974 28.0522 28.6502 29.0373 27.04 29.0373C25.4298 29.0373 24.5015 28.0522 24.5015 26.3662V10.226H24.35L17.587 26.764C17.0944 27.9764 16.3367 28.5069 15.1432 28.5069C13.9308 28.5069 13.1352 27.9575 12.6616 26.783L5.89859 10.226H5.74704V26.3662C5.74704 28.0522 4.81878 29.0373 3.20855 29.0373Z" fill="#57CC02"/>
</svg>
