<svg width="25" height="25" viewBox="0 0 25 25" fill="none" xmlns="http://www.w3.org/2000/svg">
<path d="M8 22.2642C7.01667 22.2642 6.1875 21.9267 5.5125 21.2517C4.8375 20.5767 4.5 19.7475 4.5 18.7642V5.76416C4.5 4.79749 4.8375 3.97249 5.5125 3.28916C6.1875 2.60583 7.01667 2.26416 8 2.26416H20.5V17.2642C20.0667 17.2642 19.7083 17.41 19.425 17.7017C19.1417 17.9933 19 18.3475 19 18.7642C19 19.1975 19.1417 19.5558 19.425 19.8392C19.7083 20.1225 20.0667 20.2642 20.5 20.2642V22.2642H8ZM8 20.2642H17.325C17.225 20.0308 17.1458 19.7933 17.0875 19.5517C17.0292 19.31 17 19.0475 17 18.7642C17 18.4975 17.025 18.2392 17.075 17.9892C17.125 17.7392 17.2083 17.4975 17.325 17.2642H8C7.56667 17.2642 7.20833 17.41 6.925 17.7017C6.64167 17.9933 6.5 18.3475 6.5 18.7642C6.5 19.1975 6.64167 19.5558 6.925 19.8392C7.20833 20.1225 7.56667 20.2642 8 20.2642ZM6.5 15.5892C6.73333 15.4725 6.97083 15.3892 7.2125 15.3392C7.45417 15.2892 7.71667 15.2642 8 15.2642H18.5V4.26416H8C7.56667 4.26416 7.20833 4.40999 6.925 4.70166C6.64167 4.99333 6.5 5.34749 6.5 5.76416V15.5892ZM9.225 13.2642H10.45L11.075 11.4892H13.9L14.525 13.2642H15.75L13.1 6.26416H11.85L9.225 13.2642ZM11.425 10.4642L12.45 7.56416H12.525L13.55 10.4642H11.425Z" fill="#4B4B4B"/>
</svg>
