<svg width="343" height="43" viewBox="0 0 343 43" fill="none" xmlns="http://www.w3.org/2000/svg">
<g filter="url(#filter0_d_206_904)">
<rect width="40" height="40" rx="8" fill="#57CC02" shape-rendering="crispEdges"/>
<path d="M19 13L14 17H10V23H14L19 27V13Z" fill="white" stroke="white" stroke-width="2" stroke-linecap="round" stroke-linejoin="round"/>
<path d="M27.07 12.9301C28.9447 14.8053 29.9979 17.3484 29.9979 20.0001C29.9979 22.6517 28.9447 25.1948 27.07 27.0701M23.54 16.4601C24.4774 17.3977 25.004 18.6692 25.004 19.9951C25.004 21.3209 24.4774 22.5924 23.54 23.5301" stroke="white" stroke-width="2" stroke-linecap="round" stroke-linejoin="round"/>
</g>
<g filter="url(#filter1_d_206_904)">
<rect x="48" width="40" height="40" rx="8" fill="#1CB0F6" shape-rendering="crispEdges"/>
<path d="M68 30C62.4771 30 58 25.5228 58 20C58 14.4771 62.4771 10 68 10C73.5228 10 78 14.4771 78 20C78 25.5228 73.5228 30 68 30ZM68 28C72.4183 28 76 24.4183 76 20C76 15.5817 72.4183 12 68 12C63.5817 12 60 15.5817 60 20C60 24.4183 63.5817 28 68 28ZM67 23H69V25H67V23ZM69 21.3551V22H67V20.5C67 19.9477 67.4477 19.5 68 19.5C68.8284 19.5 69.5 18.8284 69.5 18C69.5 17.1716 68.8284 16.5 68 16.5C67.2723 16.5 66.6656 17.0182 66.5288 17.7058L64.5673 17.3135C64.8864 15.7092 66.302 14.5 68 14.5C69.933 14.5 71.5 16.067 71.5 18C71.5 19.5855 70.4457 20.9248 69 21.3551Z" fill="white"/>
</g>
<g filter="url(#filter2_d_206_904)">
<rect x="96" width="40" height="40" rx="8" fill="#FFA300" shape-rendering="crispEdges"/>
<path d="M116.382 11C116.761 11 117.107 11.214 117.276 11.5528L118 13H124C124.552 13 125 13.4477 125 14V25C125 25.5523 124.552 26 124 26H117.618C117.239 26 116.893 25.786 116.724 25.4472L116 24H109V30H107V11H116.382ZM115.764 13H109V22H117.236L118.236 24H123V15H116.764L115.764 13Z" fill="white"/>
</g>
<g filter="url(#filter3_d_206_904)">
<rect x="303" width="40" height="40" rx="8" fill="#FF4B4C" shape-rendering="crispEdges"/>
<path d="M323.001 12.5285C325.35 10.42 328.98 10.49 331.243 12.7574C333.505 15.0247 333.583 18.637 331.479 20.993L323 29.485L314.521 20.993C312.417 18.637 312.496 15.019 314.757 12.7574C317.022 10.4932 320.645 10.4169 323.001 12.5285ZM329.827 14.1701C328.328 12.6679 325.908 12.607 324.337 14.0169L323.002 15.2152L321.666 14.0178C320.091 12.606 317.675 12.6681 316.172 14.1716C314.682 15.6613 314.607 18.0473 315.98 19.6232L323 26.6543L330.02 19.6232C331.393 18.0467 331.319 15.6653 329.827 14.1701Z" fill="white"/>
</g>
<defs>
<filter id="filter0_d_206_904" x="0" y="0" width="40" height="43" filterUnits="userSpaceOnUse" color-interpolation-filters="sRGB">
<feFlood flood-opacity="0" result="BackgroundImageFix"/>
<feColorMatrix in="SourceAlpha" type="matrix" values="0 0 0 0 0 0 0 0 0 0 0 0 0 0 0 0 0 0 127 0" result="hardAlpha"/>
<feOffset dy="3"/>
<feComposite in2="hardAlpha" operator="out"/>
<feColorMatrix type="matrix" values="0 0 0 0 0.250416 0 0 0 0 0.595105 0 0 0 0 0 0 0 0 1 0"/>
<feBlend mode="normal" in2="BackgroundImageFix" result="effect1_dropShadow_206_904"/>
<feBlend mode="normal" in="SourceGraphic" in2="effect1_dropShadow_206_904" result="shape"/>
</filter>
<filter id="filter1_d_206_904" x="48" y="0" width="40" height="43" filterUnits="userSpaceOnUse" color-interpolation-filters="sRGB">
<feFlood flood-opacity="0" result="BackgroundImageFix"/>
<feColorMatrix in="SourceAlpha" type="matrix" values="0 0 0 0 0 0 0 0 0 0 0 0 0 0 0 0 0 0 127 0" result="hardAlpha"/>
<feOffset dy="3"/>
<feComposite in2="hardAlpha" operator="out"/>
<feColorMatrix type="matrix" values="0 0 0 0 0.0941176 0 0 0 0 0.6 0 0 0 0 0.839216 0 0 0 1 0"/>
<feBlend mode="normal" in2="BackgroundImageFix" result="effect1_dropShadow_206_904"/>
<feBlend mode="normal" in="SourceGraphic" in2="effect1_dropShadow_206_904" result="shape"/>
</filter>
<filter id="filter2_d_206_904" x="96" y="0" width="40" height="43" filterUnits="userSpaceOnUse" color-interpolation-filters="sRGB">
<feFlood flood-opacity="0" result="BackgroundImageFix"/>
<feColorMatrix in="SourceAlpha" type="matrix" values="0 0 0 0 0 0 0 0 0 0 0 0 0 0 0 0 0 0 127 0" result="hardAlpha"/>
<feOffset dy="3"/>
<feComposite in2="hardAlpha" operator="out"/>
<feColorMatrix type="matrix" values="0 0 0 0 0.8 0 0 0 0 0.466667 0 0 0 0 0.00784314 0 0 0 1 0"/>
<feBlend mode="normal" in2="BackgroundImageFix" result="effect1_dropShadow_206_904"/>
<feBlend mode="normal" in="SourceGraphic" in2="effect1_dropShadow_206_904" result="shape"/>
</filter>
<filter id="filter3_d_206_904" x="303" y="0" width="40" height="43" filterUnits="userSpaceOnUse" color-interpolation-filters="sRGB">
<feFlood flood-opacity="0" result="BackgroundImageFix"/>
<feColorMatrix in="SourceAlpha" type="matrix" values="0 0 0 0 0 0 0 0 0 0 0 0 0 0 0 0 0 0 127 0" result="hardAlpha"/>
<feOffset dy="3"/>
<feComposite in2="hardAlpha" operator="out"/>
<feColorMatrix type="matrix" values="0 0 0 0 0.8 0 0 0 0 0.235294 0 0 0 0 0.235294 0 0 0 1 0"/>
<feBlend mode="normal" in2="BackgroundImageFix" result="effect1_dropShadow_206_904"/>
<feBlend mode="normal" in="SourceGraphic" in2="effect1_dropShadow_206_904" result="shape"/>
</filter>
</defs>
</svg>
