<svg xmlns="http://www.w3.org/2000/svg" xmlns:xlink="http://www.w3.org/1999/xlink" width="100" height="100" viewBox="0 0 100 100">
    <defs>
        <path id="xznr507lfa" d="M0.21 0.901L12.417 0.901 12.417 13.219 0.21 13.219z"/>
    </defs>
    <g fill="none" fill-rule="evenodd">
        <g>
            <g>
                <g>
                    <path fill="#EEE" d="M64.368 52.27c3.3-4.747 4.896-10.484 4.91-16.283C69.363 1.877 40.024.231 40.024.231 14.598-2.057 11.119 13.388 11.119 13.388s-13.154 4.294-8.377 29.89" transform="translate(-70 -390) translate(70 390) translate(14 9)"/>
                    <path fill="#FFB190" d="M12.207 48.099c0 3.401-2.733 6.16-6.103 6.16C2.734 54.258 0 51.5 0 48.098c0-3.401 2.733-6.16 6.104-6.16 3.37 0 6.103 2.759 6.103 6.16" transform="translate(-70 -390) translate(70 390) translate(14 9)"/>
                    <path fill="#DD8F7A" d="M10.902 48.099c0 2.081-1.671 3.769-3.735 3.769-2.062 0-3.734-1.688-3.734-3.769 0-2.081 1.672-3.769 3.734-3.769 2.064 0 3.735 1.688 3.735 3.769" transform="translate(-70 -390) translate(70 390) translate(14 9)"/>
                    <g transform="translate(-70 -390) translate(70 390) translate(14 9) translate(58.629 41.039)">
                        <mask id="0o4s94tr7b" fill="#fff">
                            <use xlink:href="#xznr507lfa"/>
                        </mask>
                        <path fill="#FFB190" d="M.21 7.06c0 3.401 2.733 6.16 6.104 6.16 3.37 0 6.103-2.759 6.103-6.16C12.417 3.659 9.684.9 6.314.9 2.943.9.21 3.66.21 7.06" mask="url(#0o4s94tr7b)"/>
                    </g>
                    <path fill="#DD8F7A" d="M60.143 48.099c0 2.081 1.672 3.769 3.735 3.769 2.062 0 3.735-1.688 3.735-3.769 0-2.081-1.673-3.769-3.735-3.769-2.063 0-3.735 1.688-3.735 3.769" transform="translate(-70 -390) translate(70 390) translate(14 9)"/>
                    <path fill="#FFB190" d="M38.279 15.327c13.26 0 24.01 10.848 24.01 24.228v13.377c0 15.788-12.061 28.587-26.94 28.587-14.877 0-26.938-12.799-26.938-28.587V36.267c0-11.565 9.29-20.94 20.75-20.94h9.118z" transform="translate(-70 -390) translate(70 390) translate(14 9)"/>
                    <path fill="#111" d="M29.109 45.047c.002 1.684-1.35 3.05-3.019 3.052-1.668.001-3.022-1.363-3.024-3.046 0-1.684 1.35-3.051 3.019-3.052 1.67-.002 3.023 1.362 3.024 3.046M47.633 45.03c0 1.684-1.35 3.05-3.02 3.052-1.667 0-3.022-1.363-3.023-3.047-.001-1.683 1.35-3.05 3.019-3.051 1.668-.002 3.023 1.362 3.024 3.046" transform="translate(-70 -390) translate(70 390) translate(14 9)"/>
                    <path fill="#DD8F7A" d="M35.778 60.007c-2.675 0-4.843-2.187-4.843-4.886v-5.905c0-2.699 2.168-4.886 4.843-4.886 2.674 0 4.841 2.187 4.841 4.886v5.905c0 2.699-2.167 4.886-4.841 4.886" transform="translate(-70 -390) translate(70 390) translate(14 9)"/>
                    <path fill="#FFF" d="M35.778 53.887s-12.426-1.06-14.938 13.276c0 0 11.168 2.503 14.938-4.964 3.77 7.467 14.937 4.964 14.937 4.964-2.512-14.336-14.937-13.276-14.937-13.276M28.188 36.289c.61-.303-1.047-.874-1.642-1.151-2.018-.94-4.398-.864-6.366.18-1.45.769-2.235 1.702-2.235 1.702s3.344 2.708 10.243-.731" transform="translate(-70 -390) translate(70 390) translate(14 9)"/>
                    <path fill="#EEE" d="M19.89 18.985s-2.685 12.7 15.269 16.933c0 0 10.571 2.032 29.7 0 0 0 3.02-30.14-27.183-31.325 0 0-16.78-.508-17.787 14.392" transform="translate(-70 -390) translate(70 390) translate(14 9)"/>
                </g>
            </g>
        </g>
    </g>
</svg>
