<svg xmlns="http://www.w3.org/2000/svg" xmlns:xlink="http://www.w3.org/1999/xlink" width="100" height="100" viewBox="0 0 100 100">
    <defs>
        <path id="5j3f23nmfa" d="M0 0.357L75.527 0.357 75.527 55.864 0 55.864z"/>
    </defs>
    <g fill="none" fill-rule="evenodd">
        <g>
            <g>
                <g>
                    <g transform="translate(-70 -270) translate(70 270) translate(12 4) translate(0 .643)">
                        <mask id="nzcgbwlf1b" fill="#fff">
                            <use xlink:href="#5j3f23nmfa"/>
                        </mask>
                        <path fill="#FE9602" d="M11.265 55.856s-17.183-8.502-9.105-29.54c0 0-4.971-11.202 9.105-11.202 0 0-4.54-14.049 8.808-14.752 0 0 7.375-.35 11.238 4.566 3.864 4.917 12.644 1.757 12.644 1.757s19.318-8.78 27.396 4.917c0 0 4.215 6.668 0 16.504 0 0 13.357 17.304-7.705 27.758" mask="url(#nzcgbwlf1b)"/>
                    </g>
                    <path fill="#FFC6B6" d="M14.956 59.444c0 3.277-2.657 5.934-5.934 5.934s-5.934-2.657-5.934-5.934 2.657-5.934 5.934-5.934 5.934 2.657 5.934 5.934" transform="translate(-70 -270) translate(70 270) translate(12 4)"/>
                    <path fill="#F2BBAF" d="M13.687 59.444c0 2.005-1.625 3.631-3.631 3.631-2.005 0-3.631-1.626-3.631-3.63 0-2.006 1.626-3.632 3.63-3.632 2.007 0 3.632 1.626 3.632 3.631" transform="translate(-70 -270) translate(70 270) translate(12 4)"/>
                    <path fill="#FFC6B6" d="M60.292 59.444c0 3.277 2.657 5.934 5.934 5.934s5.934-2.657 5.934-5.934-2.657-5.934-5.934-5.934-5.934 2.657-5.934 5.934" transform="translate(-70 -270) translate(70 270) translate(12 4)"/>
                    <path fill="#F2BBAF" d="M61.56 59.444c0 2.005 1.626 3.631 3.631 3.631s3.631-1.626 3.631-3.63c0-2.006-1.626-3.632-3.63-3.632-2.006 0-3.632 1.626-3.632 3.631" transform="translate(-70 -270) translate(70 270) translate(12 4)"/>
                    <path fill="#FFC6B6" d="M63.646 64.1c0 15.212-11.726 27.543-26.19 27.543-14.465 0-26.191-12.331-26.191-27.542V32.105s1.714-8.863 13.899-3.324c12.186 5.539 24.819 10.34 38.482 2.585V64.1z" transform="translate(-70 -270) translate(70 270) translate(12 4)"/>
                    <path fill="#111" d="M31.388 56.505c.001 1.621-1.312 2.938-2.935 2.94-1.622 0-2.939-1.313-2.94-2.935 0-1.622 1.313-2.938 2.935-2.94 1.622-.002 2.94 1.313 2.94 2.934M49.397 56.488c.001 1.622-1.312 2.938-2.935 2.94-1.622 0-2.939-1.312-2.94-2.935 0-1.622 1.313-2.938 2.935-2.94 1.622-.001 2.94 1.313 2.94 2.935" transform="translate(-70 -270) translate(70 270) translate(12 4)"/>
                    <path fill="#ED9583" d="M37.455 70.472c-2.973 0-5.384-2.41-5.384-5.384V63.37c0-2.973 2.411-5.383 5.384-5.383 2.973 0 5.384 2.41 5.384 5.383v1.718c0 2.974-2.41 5.384-5.384 5.384" transform="translate(-70 -270) translate(70 270) translate(12 4)"/>
                    <path fill="#111" d="M27.285 49.336c-3.946 0-7.155 3.21-7.155 7.154 0 3.945 3.21 7.155 7.155 7.155 3.945 0 7.155-3.21 7.155-7.155 0-3.945-3.21-7.154-7.155-7.154m0 15.683c-4.703 0-8.528-3.827-8.528-8.529s3.825-8.528 8.528-8.528c4.702 0 8.528 3.826 8.528 8.528 0 4.703-3.826 8.529-8.528 8.529M47.626 49.336c-3.946 0-7.155 3.21-7.155 7.154 0 3.945 3.209 7.155 7.155 7.155 3.945 0 7.155-3.21 7.155-7.155 0-3.945-3.21-7.154-7.155-7.154m0 15.683c-4.703 0-8.528-3.827-8.528-8.529s3.825-8.528 8.528-8.528c4.702 0 8.527 3.826 8.527 8.528 0 4.703-3.825 8.529-8.527 8.529" transform="translate(-70 -270) translate(70 270) translate(12 4)"/>
                    <path fill="#111" d="M39.784 57.177h-4.657c-.38 0-.687-.308-.687-.687 0-.378.307-.686.687-.686h4.657c.38 0 .686.308.686.686 0 .38-.307.687-.686.687" transform="translate(-70 -270) translate(70 270) translate(12 4)"/>
                    <path fill="#ED9583" fill-rule="nonzero" d="M23.137 43.354c2.192-1.152 4.833-1.228 7.073-.195.748.346 1.394.784 1.909 1.333.377.404.356 1.036-.047 1.414-.404.377-1.036.356-1.414-.047-.322-.345-.758-.64-1.286-.884-1.673-.772-3.66-.714-5.304.15-.178.093-.35.193-.516.297-.401.252-.75.522-1.043.79l-.173.162-.112.116-.034.037c-.358.421-.989.472-1.41.114-.42-.358-.471-.989-.113-1.41.339-.398.948-.953 1.82-1.502.21-.131.426-.257.65-.375zM44.123 43.354c2.192-1.152 4.833-1.228 7.073-.195.748.346 1.394.784 1.908 1.333.378.404.357 1.036-.046 1.414-.404.377-1.037.356-1.414-.047-.322-.345-.758-.64-1.287-.884-1.672-.772-3.66-.714-5.303.15-.178.093-.35.193-.516.297-.401.252-.75.522-1.043.79l-.173.162-.113.116-.033.037c-.358.421-.989.472-1.41.114-.42-.358-.471-.989-.113-1.41.338-.398.948-.953 1.82-1.502.209-.131.426-.257.65-.375z" transform="translate(-70 -270) translate(70 270) translate(12 4)"/>
                    <path fill="#ED9583" d="M52.374 70.472c-3.779 13.98-16.56 9.92-16.56 9.92l16.56-9.92z" transform="translate(-70 -270) translate(70 270) translate(12 4)"/>
                    <path fill="#111" fill-rule="nonzero" d="M10.791 53.792c.079-.232.312-.369.546-.334l.088.021 7.493 2.538c.262.089.402.373.313.634-.079.233-.312.37-.546.335l-.088-.022-7.493-2.538c-.261-.088-.402-.372-.313-.634zM63.464 53.104c.257-.1.547.027.647.284.09.23-.001.484-.203.608l-.08.04L55.71 57.2c-.257.1-.547-.027-.647-.284-.09-.23.001-.484.203-.608l.08-.04 8.117-3.164z" transform="translate(-70 -270) translate(70 270) translate(12 4)"/>
                </g>
            </g>
        </g>
    </g>
</svg>
