<svg width="72" height="20" viewBox="0 0 72 20" xmlns="http://www.w3.org/2000/svg" xmlns:xlink="http://www.w3.org/1999/xlink">
    <defs>
        <path id="xbfzyjojxa" d="M0 0h19.163v19.163H0z"/>
        <path id="f4un86k5sc" d="M0 0h19.163v19.163H0z"/>
        <path id="pzc4tsswke" d="M0 0h19.163v19.163H0z"/>
    </defs>
    <g fill="none" fill-rule="evenodd">
        <g>
            <mask id="ikitnac3lb" fill="#fff">
                <use xlink:href="#xbfzyjojxa"/>
            </mask>
            <path d="m17.89 5.964-4.889-.126L10.778.78a1.307 1.307 0 0 0-2.392 0L6.163 5.838l-4.89.126a1.307 1.307 0 0 0-.9 2.22l3.65 3.745-1.18 5.675a1.308 1.308 0 0 0 .542 1.346c.418.282 1.082.282 1.45.016l4.746-3.092 4.747 3.092a1.404 1.404 0 0 0 1.45-.016c.438-.283.65-.83.542-1.346l-1.18-5.675 3.652-3.745a1.307 1.307 0 0 0-.901-2.22" fill="#FED400" mask="url(#ikitnac3lb)"/>
        </g>
        <g transform="translate(26)">
            <mask id="sjqe3fefhd" fill="#fff">
                <use xlink:href="#f4un86k5sc"/>
            </mask>
            <path d="m17.89 5.964-4.889-.126L10.778.78a1.307 1.307 0 0 0-2.392 0L6.163 5.838l-4.89.126a1.307 1.307 0 0 0-.9 2.22l3.65 3.745-1.18 5.675a1.308 1.308 0 0 0 .542 1.346c.418.282 1.082.282 1.45.016l4.746-3.092 4.747 3.092a1.404 1.404 0 0 0 1.45-.016c.438-.283.65-.83.542-1.346l-1.18-5.675 3.652-3.745a1.307 1.307 0 0 0-.901-2.22" fill="#FED400" mask="url(#sjqe3fefhd)"/>
        </g>
        <g transform="translate(52)">
            <mask id="6615f3cqdf" fill="#fff">
                <use xlink:href="#pzc4tsswke"/>
            </mask>
            <path d="m17.89 5.964-4.889-.126L10.778.78a1.307 1.307 0 0 0-2.392 0L6.163 5.838l-4.89.126a1.307 1.307 0 0 0-.9 2.22l3.65 3.745-1.18 5.675a1.308 1.308 0 0 0 .542 1.346c.418.282 1.082.282 1.45.016l4.746-3.092 4.747 3.092a1.404 1.404 0 0 0 1.45-.016c.438-.283.65-.83.542-1.346l-1.18-5.675 3.652-3.745a1.307 1.307 0 0 0-.901-2.22" fill="#FED400" mask="url(#6615f3cqdf)"/>
        </g>
    </g>
</svg>
