<svg xmlns="http://www.w3.org/2000/svg" xmlns:xlink="http://www.w3.org/1999/xlink" width="72" height="20" viewBox="0 0 72 20">
    <defs>
        <path id="dqgmsire2a" d="M0 0L19.163 0 19.163 19.163 0 19.163z"/>
        <path id="3hyg58izjb" d="M0 0L19.163 0 19.163 19.163 0 19.163z"/>
        <path id="4unvb5378d" d="M0 0L19.163 0 19.163 19.163 0 19.163z"/>
    </defs>
    <g fill="none" fill-rule="evenodd">
        <g>
            <g>
                <g transform="translate(-144 -366) translate(144 366)"/>
                <g transform="translate(-144 -366) translate(144 366) translate(13)">
                    <mask id="rpif8kvoic" fill="#fff">
                        <use xlink:href="#3hyg58izjb"/>
                    </mask>
                    <path fill="#FED400" d="M17.89 5.964l-4.889-.126L10.778.78c-.209-.475-.679-.78-1.197-.78-.516 0-.987.305-1.195.78L6.163 5.838l-4.89.126c-.52.013-.98.333-1.177.815-.195.481-.087 1.033.277 1.405l3.65 3.745-1.18 5.675c-.108.516.106 1.048.542 1.346.418.282 1.082.282 1.45.016l4.746-3.092 4.747 3.092c.432.257 1.014.266 1.45-.016.438-.283.65-.83.542-1.346l-1.18-5.675 3.652-3.745c.363-.372.471-.924.275-1.405-.195-.482-.657-.802-1.176-.815" mask="url(#rpif8kvoic)"/>
                </g>
                <g transform="translate(-144 -366) translate(144 366) translate(39)">
                    <mask id="kesrywvike" fill="#fff">
                        <use xlink:href="#4unvb5378d"/>
                    </mask>
                    <path fill="#FED400" d="M17.89 5.964l-4.889-.126L10.778.78c-.209-.475-.679-.78-1.197-.78-.516 0-.987.305-1.195.78L6.163 5.838l-4.89.126c-.52.013-.98.333-1.177.815-.195.481-.087 1.033.277 1.405l3.65 3.745-1.18 5.675c-.108.516.106 1.048.542 1.346.418.282 1.082.282 1.45.016l4.746-3.092 4.747 3.092c.432.257 1.014.266 1.45-.016.438-.283.65-.83.542-1.346l-1.18-5.675 3.652-3.745c.363-.372.471-.924.275-1.405-.195-.482-.657-.802-1.176-.815" mask="url(#kesrywvike)"/>
                </g>
            </g>
        </g>
    </g>
</svg>
