<svg xmlns="http://www.w3.org/2000/svg" xmlns:xlink="http://www.w3.org/1999/xlink" width="100" height="100" viewBox="0 0 100 100">
    <defs>
        <path id="y8jdmjumza" d="M0.278 0.685L40.778 0.685 40.778 37.014 0.278 37.014z"/>
        <path id="4ev9jqcigc" d="M0.204 0.868L12.072 0.868 12.072 12.736 0.204 12.736z"/>
        <path id="p61fihzabe" d="M0.177 0.461L52.558 0.461 52.558 60 0.177 60z"/>
    </defs>
    <g fill="none" fill-rule="evenodd">
        <g>
            <g>
                <g>
                    <g transform="translate(-70 -150) translate(70 150) translate(15 8) translate(13 .315)">
                        <mask id="as1fz7majb" fill="#fff">
                            <use xlink:href="#y8jdmjumza"/>
                        </mask>
                        <path fill="#111" d="M40.778 18.85c0 10.031-9.066 18.164-20.25 18.164S.278 28.881.278 18.85C.278 8.818 9.344.684 20.528.684s20.25 8.134 20.25 18.165" mask="url(#as1fz7majb)"/>
                    </g>
                    <path fill="#FF6775" d="M51.693 24.776c0 9-8.133 16.295-18.165 16.295s-18.164-7.295-18.164-16.294c0-9 8.132-16.294 18.164-16.294 10.032 0 18.165 7.294 18.165 16.293" transform="translate(-70 -150) translate(70 150) translate(15 8)"/>
                    <path fill="#111" d="M49.647 68.005H19.424c-8.884 0-16.087-7.203-16.087-16.087v-15.45c0-11.018 8.932-19.95 19.951-19.95h22.496c11.018 0 19.95 8.932 19.95 19.95v15.45c0 8.884-7.202 16.087-16.087 16.087" transform="translate(-70 -150) translate(70 150) translate(15 8)"/>
                    <path fill="#A56644" d="M11.868 52.117c0 3.277-2.657 5.934-5.934 5.934S0 55.394 0 52.117s2.657-5.934 5.934-5.934 5.934 2.657 5.934 5.934" transform="translate(-70 -150) translate(70 150) translate(15 8)"/>
                    <path fill="#874019" d="M10.6 52.117c0 2.005-1.626 3.63-3.632 3.63-2.005 0-3.63-1.625-3.63-3.63s1.625-3.631 3.63-3.631c2.006 0 3.631 1.626 3.631 3.63" transform="translate(-70 -150) translate(70 150) translate(15 8)"/>
                    <g transform="translate(-70 -150) translate(70 150) translate(15 8) translate(57 45.315)">
                        <mask id="1n40o9spid" fill="#fff">
                            <use xlink:href="#4ev9jqcigc"/>
                        </mask>
                        <path fill="#A56644" d="M.204 6.802c0 3.277 2.657 5.934 5.934 5.934s5.934-2.657 5.934-5.934S9.415.868 6.138.868.204 3.525.204 6.802" mask="url(#1n40o9spid)"/>
                    </g>
                    <path fill="#874019" d="M58.473 52.117c0 2.005 1.626 3.63 3.63 3.63 2.006 0 3.632-1.625 3.632-3.63s-1.626-3.631-3.631-3.631-3.631 1.626-3.631 3.63" transform="translate(-70 -150) translate(70 150) translate(15 8)"/>
                    <g transform="translate(-70 -150) translate(70 150) translate(15 8) translate(8 24.315)">
                        <mask id="kejcxcbpcf" fill="#fff">
                            <use xlink:href="#p61fihzabe"/>
                        </mask>
                        <path fill="#A56644" d="M38.678.461c7.666 0 13.88 6.214 13.88 13.88v18.117C52.558 47.67 40.832 60 26.368 60 11.902 60 .177 47.67.177 32.458V14.341C.177 6.675 6.39.461 14.057.461h24.62z" mask="url(#kejcxcbpcf)"/>
                    </g>
                    <path fill="#111" d="M28.3 51.653c.002 1.622-1.311 2.938-2.934 2.94-1.622 0-2.94-1.313-2.94-2.935-.001-1.622 1.313-2.938 2.935-2.94 1.622-.002 2.939 1.312 2.94 2.935M46.31 51.636c0 1.622-1.313 2.938-2.936 2.94-1.622.001-2.939-1.313-2.94-2.935 0-1.622 1.314-2.939 2.936-2.94 1.622-.002 2.939 1.312 2.94 2.935" transform="translate(-70 -150) translate(70 150) translate(15 8)"/>
                    <path fill="#914C28" fill-rule="nonzero" d="M20.05 38.503c2.192-1.153 4.833-1.229 7.072-.196.749.346 1.395.784 1.909 1.334.377.403.356 1.036-.047 1.413-.403.377-1.036.356-1.413-.047-.323-.344-.758-.64-1.287-.884-1.673-.772-3.66-.714-5.304.15-.177.093-.35.193-.516.298-.4.252-.75.521-1.043.789l-.172.163-.113.115-.034.038c-.357.42-.989.471-1.41.114-.42-.358-.47-.99-.113-1.41.339-.398.949-.954 1.82-1.502.21-.132.426-.257.65-.375zM41.035 38.503c2.193-1.153 4.833-1.229 7.073-.196.749.346 1.394.784 1.909 1.334.377.403.356 1.036-.047 1.413-.403.377-1.036.356-1.414-.047-.322-.344-.757-.64-1.286-.884-1.673-.772-3.66-.714-5.304.15-.178.093-.35.193-.516.298-.401.252-.75.521-1.043.789l-.173.163-.112.115-.034.038c-.358.42-.989.471-1.41.114-.42-.358-.47-.99-.113-1.41.339-.398.948-.954 1.82-1.502.21-.132.426-.257.65-.375z" transform="translate(-70 -150) translate(70 150) translate(15 8)"/>
                    <path fill="#874019" d="M30.612 58.819c0-2.075 1.681-5.765 3.755-5.765 2.075 0 3.756 3.69 3.756 5.764 0 2.075-1.68 3.756-3.756 3.756-2.074 0-3.755-1.681-3.755-3.755" transform="translate(-70 -150) translate(70 150) translate(15 8)"/>
                    <path fill="#111" d="M53.723 38.552c-5.2 0-9.416-4.215-9.416-9.416v-7.512c0-5.2 4.216-9.416 9.416-9.416s9.416 4.216 9.416 9.416v7.512c0 5.2-4.216 9.416-9.416 9.416" transform="translate(-70 -150) translate(70 150) translate(15 8)"/>
                    <path fill="#874019" d="M43.805 68.08c-7.591 3.52-14.248 1.691-17.973-.016-.916-.42-.6-1.799.408-1.799h17.173c1.018 0 1.315 1.387.392 1.815" transform="translate(-70 -150) translate(70 150) translate(15 8)"/>
                </g>
            </g>
        </g>
    </g>
</svg>
