<svg xmlns="http://www.w3.org/2000/svg" xmlns:xlink="http://www.w3.org/1999/xlink" width="209" height="68" viewBox="0 0 209 68">
    <defs>
        <path id="c7tck3up8a" d="M0.735 0.197L31.804 0.197 31.804 31.179 0.735 31.179z"/>
    </defs>
    <g fill="none" fill-rule="evenodd">
        <g>
            <g>
                <path d="M0 0H209V68H0z" transform="translate(-76 -287) translate(76 287)"/>
                <path fill="#FFF" fill-rule="nonzero" d="M58.37 67v-1.7h-6.34v-3.88h5.54v-1.7h-5.54v-3.84h6.34v-1.7h-8.14V67h8.14zm6.56.24c2.86 0 4.7-1.52 4.7-3.78 0-4.56-7.16-3.28-7.16-6.1 0-1.04.96-1.72 2.5-1.72 1.38 0 2.6.7 3.18 1.52l1.28-1.24c-.78-1.1-2.4-1.98-4.4-1.98-2.66 0-4.48 1.42-4.48 3.48 0 4.42 7.16 3.04 7.16 6.16 0 1.2-1 1.96-2.76 1.96-1.46 0-2.7-.58-3.56-1.7l-1.3 1.22c.88 1.24 2.44 2.18 4.84 2.18zm9.2-.24v-4.68h2.64c2.98 0 4.96-1.62 4.96-4.08s-1.96-4.06-4.92-4.06h-4.48V67h1.8zm2.84-6.3h-2.84v-4.9h2.84c1.72 0 2.86.96 2.86 2.44s-1.14 2.46-2.86 2.46zM92.59 67v-1.7h-6.34v-3.88h5.54v-1.7h-5.54v-3.84h6.34v-1.7h-8.14V67h8.14zm4.5 0v-5.08h2.5l3 5.08h2.08l-3.2-5.3c1.84-.5 2.98-1.84 2.98-3.66 0-2.34-1.86-3.86-4.68-3.86h-4.48V67h1.8zm2.84-6.7h-2.84v-4.5h2.84c1.58 0 2.64.88 2.64 2.24 0 1.36-1.06 2.26-2.64 2.26zm8.18 6.7l1.32-3.28h6.12l1.32 3.28h2.02l-5.28-12.82h-2.12L106.21 67h1.9zm6.8-4.9h-4.82l2.4-6 2.42 6zm7.98 4.9v-9.88l7.08 9.88h1.96V54.18h-1.8v9.94l-7.1-9.94h-1.96V67h1.82zm16.98 0V55.88h4.08v-1.7h-9.94v1.7h4.06V67h1.8zm12.04.24c3.62 0 6.58-2.96 6.58-6.62 0-3.68-2.96-6.68-6.58-6.68s-6.56 2.98-6.56 6.66c0 3.66 2.94 6.64 6.56 6.64zm0-1.78c-2.56 0-4.64-2.18-4.64-4.86 0-2.7 2.08-4.88 4.64-4.88 2.58 0 4.66 2.2 4.66 4.9 0 2.66-2.08 4.84-4.66 4.84z" transform="translate(-76 -287) translate(76 287)"/>
                <g>
                    <path fill="#FFF" d="M25.236 1.344c-.549 0-1.088.144-1.601.428-.503.279-.913.65-1.216 1.104L14.365 14.89 6.525 2.876C6.212 2.41 5.77 2.03 5.21 1.751c-.541-.27-1.1-.407-1.659-.407-.967 0-1.808.34-2.498 1.008C.354 3.03 0 3.855 0 4.804V27.82c0 .953.307 1.77.91 2.427.618.675 1.449 1.032 2.4 1.032.987 0 1.804-.337 2.43-1 .611-.647.92-1.474.92-2.46V15.018l4.67 7.365.073.097c.342.411.743.75 1.195 1.01.506.292 1.043.425 1.546.398.554.027 1.096-.106 1.606-.399.448-.258.85-.596 1.207-1.027l4.73-7.19V27.82c0 1 .34 1.84 1.011 2.491.663.642 1.517.968 2.538.968 1.031 0 1.886-.34 2.54-1.01.644-.661.97-1.486.97-2.45V4.805c0-.982-.358-1.816-1.063-2.482-.69-.65-1.513-.978-2.447-.978M49.473 8.025c.98 0 1.807-.297 2.452-.887.666-.603 1.017-1.425 1.017-2.375 0-.98-.345-1.803-1.024-2.443-.662-.622-1.485-.937-2.445-.937H36.118c-.974 0-1.804.336-2.468.999-.665.664-1.002 1.49-1.002 2.461V27.82c0 .972.337 1.8 1.002 2.46.662.664 1.493 1 2.468 1h13.355c.954 0 1.773-.305 2.434-.907.678-.618 1.035-1.445 1.035-2.393 0-.891-.336-1.68-1.002-2.344-.666-.662-1.496-.997-2.467-.997h-9.766v-5.284h9.632c.982 0 1.807-.298 2.453-.886.666-.605 1.017-1.426 1.017-2.375 0-.982-.344-1.804-1.024-2.444-.663-.62-1.485-.937-2.446-.937h-9.632V8.025h9.766zM83.132 2.322c-.69-.65-1.513-.978-2.447-.978-.548 0-1.087.143-1.6.428-.504.28-.913.65-1.217 1.105l-8.055 12.011-7.838-12.011c-.314-.469-.757-.846-1.317-1.126-.542-.27-1.1-.407-1.66-.407-.967 0-1.807.34-2.497 1.007-.697.678-1.052 1.504-1.052 2.452V27.82c0 .954.306 1.771.91 2.427.619.676 1.448 1.033 2.4 1.033.987 0 1.804-.337 2.43-1.001.612-.647.92-1.474.92-2.459V15.017l4.67 7.365.072.097c.343.41.745.75 1.196 1.01.506.29 1.034.426 1.546.398.567.03 1.097-.107 1.605-.398.449-.26.851-.598 1.209-1.028l4.728-7.191v12.55c0 1.001.34 1.839 1.012 2.49.663.644 1.516.97 2.538.97 1.031 0 1.886-.34 2.539-1.01.644-.662.97-1.487.97-2.45V4.802c0-.98-.357-1.815-1.062-2.481M107.842 25.41c-.657-.615-1.471-.928-2.422-.928h-9.281V4.95c0-.967-.344-1.79-1.023-2.448-.67-.65-1.483-.98-2.415-.98-1.01 0-1.862.33-2.533.98-.68.658-1.023 1.482-1.023 2.448v22.765c0 .962.334 1.782.991 2.437.658.657 1.48.99 2.447.99h12.837c.952 0 1.767-.312 2.424-.93.672-.633 1.013-1.433 1.013-2.38 0-.964-.336-1.772-1.016-2.42h.001zM114.898 1.521c-1.01 0-1.863.33-2.533.98-.68.657-1.023 1.481-1.023 2.449v22.764c0 .962.334 1.782.992 2.438.657.656 1.493.99 2.485.99.922 0 1.742-.323 2.435-.96.717-.66 1.082-1.49 1.082-2.468V4.95c0-.967-.344-1.79-1.023-2.45-.67-.65-1.483-.979-2.415-.979M146.494 2.476c-.587-.625-1.38-.955-2.29-.955-.906 0-1.701.325-2.299.942-.599.615-.902 1.386-.902 2.289v13.967L128.497 2.825c-.297-.424-.734-.756-1.298-.99-.507-.208-1.031-.314-1.558-.314-.966 0-1.789.333-2.445.99-.66.657-.993 1.478-.993 2.439v22.96c0 .898.293 1.663.87 2.277.587.624 1.38.955 2.291.955.944 0 1.73-.317 2.338-.942.599-.616.902-1.386.902-2.29V14.054l12.643 16.008c.287.38.713.667 1.27.851.46.153.935.23 1.41.23.965 0 1.787-.334 2.446-.99.657-.656.992-1.476.992-2.438V4.752c0-.896-.293-1.663-.87-2.276M174.928 15.346c-.606-.623-1.377-.938-2.287-.938h-6.478c-.902 0-1.674.304-2.291.902-.624.604-.94 1.372-.94 2.282 0 .911.316 1.678.939 2.282.617.598 1.388.901 2.292.901h2.89v3.69c-.455.12-.963.226-1.516.311-.794.125-1.549.188-2.243.188-1.526 0-2.951-.391-4.236-1.163-1.294-.776-2.332-1.836-3.087-3.151-.754-1.311-1.135-2.764-1.135-4.319 0-1.553.381-3.006 1.135-4.318.755-1.314 1.793-2.375 3.087-3.15 1.286-.772 2.71-1.163 4.236-1.163 1.408 0 2.788.283 4.089.835 1.548.687 2.92.427 3.85-.617.573-.638.862-1.398.862-2.26 0-.536-.137-1.045-.406-1.513-.275-.473-.683-.856-1.206-1.136-2.038-1.113-4.457-1.677-7.189-1.677-2.74 0-5.311.68-7.639 2.02-2.325 1.34-4.193 3.173-5.548 5.451-1.362 2.285-2.052 4.817-2.052 7.528 0 2.711.69 5.244 2.05 7.528 1.358 2.278 3.225 4.113 5.55 5.451 2.326 1.34 4.897 2.02 7.64 2.02 3.22 0 6.223-.85 8.92-2.523 1.059-.646 1.618-1.623 1.618-2.826v-8.35c0-.9-.305-1.668-.904-2.284v-.001z" transform="translate(-76 -287) translate(76 287)"/>
                    <g transform="translate(-76 -287) translate(76 287) translate(176.91 .623)">
                        <mask id="p1x2rsf66b" fill="#fff">
                            <use xlink:href="#c7tck3up8a"/>
                        </mask>
                        <path fill="#FFF" d="M20.187 22.437c-2.172 2.166-5.692 2.166-7.862 0l-2.823-2.815c-2.172-2.164-2.172-5.675 0-7.84l2.823-2.815c2.17-2.165 5.69-2.165 7.862 0l2.823 2.815c2.17 2.165 2.17 5.676 0 7.84l-2.823 2.815zm8.181-15.02l-3.803-3.794c-4.581-4.568-12.009-4.568-16.59 0L4.17 7.416c-4.581 4.569-4.581 11.976 0 16.544l3.803 3.794c4.582 4.567 12.01 4.567 16.591 0l3.803-3.794c4.582-4.568 4.582-11.975 0-16.544z" mask="url(#p1x2rsf66b)"/>
                    </g>
                    <path fill="#FFF" d="M197.08 14.391l-2.295-.058-1.044-2.368c-.098-.222-.319-.365-.561-.365-.244 0-.464.143-.561.365l-1.045 2.368-2.295.058c-.244.007-.461.156-.552.382-.093.226-.042.484.129.658l1.714 1.753-.554 2.657c-.05.242.05.49.254.63.196.132.509.132.681.008l2.229-1.448 2.228 1.448c.202.12.476.124.68-.008.206-.133.306-.388.255-.63l-.554-2.657 1.715-1.753c.17-.174.22-.432.129-.658-.092-.226-.309-.375-.553-.382" transform="translate(-76 -287) translate(76 287)"/>
                </g>
            </g>
        </g>
    </g>
</svg>
