<svg width="11" height="11" viewBox="0 0 11 11" fill="none" xmlns="http://www.w3.org/2000/svg">
<path d="M5.21697 1.04881C5.39844 0.490304 6.18857 0.490304 6.37004 1.04881L7.15452 3.46319C7.23567 3.71296 7.46843 3.88207 7.73105 3.88207H10.2697C10.8569 3.88207 11.1011 4.63353 10.626 4.9787L8.57221 6.47087C8.35974 6.62524 8.27083 6.89886 8.35199 7.14863L9.13647 9.56301C9.31794 10.1215 8.67871 10.5859 8.20362 10.2408L6.14982 8.7486C5.93735 8.59423 5.64965 8.59423 5.43718 8.7486L3.38339 10.2408C2.9083 10.5859 2.26907 10.1215 2.45053 9.56301L3.23501 7.14863C3.31617 6.89886 3.22726 6.62524 3.0148 6.47087L0.961001 4.9787C0.48591 4.63353 0.730075 3.88207 1.31732 3.88207H3.85595C4.11857 3.88207 4.35133 3.71296 4.43249 3.46319L5.21697 1.04881Z" fill="#57CC02"/>
</svg>
