<svg width="26" height="30" viewBox="0 0 26 30" fill="none" xmlns="http://www.w3.org/2000/svg">
<path d="M13.3608 29.132C5.19602 29.132 0.194824 23.8088 0.194824 14.9241C0.194824 6.17197 5.19602 0.867676 13.2282 0.867676C18.4757 0.867676 22.5865 3.33038 24.121 6.68346C24.443 7.34649 24.5378 7.89587 24.5378 8.44524C24.5378 9.90392 23.5337 10.9079 22.0372 10.9079C20.8247 10.9079 19.9723 10.3965 19.2713 9.24089C17.9263 6.79712 15.9372 5.60365 13.2472 5.60365C8.73853 5.60365 6.02955 9.0325 6.02955 14.8483C6.02955 20.7777 8.90902 24.396 13.4556 24.396C17.1875 24.396 19.7828 22.1038 19.8965 18.7128L19.9154 18.2771H15.9372C14.5733 18.2771 13.645 17.5004 13.645 16.1933C13.645 14.8862 14.5543 14.1095 15.9372 14.1095H22.6244C24.4241 14.1095 25.4849 15.2082 25.4849 17.0837V17.5004C25.4849 24.4528 21.071 29.132 13.3608 29.132Z" fill="#57CC02"/>
</svg>
