<svg width="24" height="29" viewBox="0 0 24 29" fill="none" xmlns="http://www.w3.org/2000/svg">
<path d="M3.35087 28.1696C1.62698 28.1696 0.604004 27.1277 0.604004 25.3091V2.95526C0.604004 1.13664 1.66486 0.0947266 3.48348 0.0947266C4.658 0.0947266 5.45365 0.568324 6.32507 1.76179L18.1461 18.2809H18.2976V2.9742C18.2976 1.13664 19.3206 0.0947266 21.0445 0.0947266C22.7684 0.0947266 23.7724 1.13664 23.7724 2.9742V25.3849C23.7724 27.1656 22.7684 28.1696 20.9687 28.1696C19.7374 28.1696 18.9796 27.7339 18.1082 26.5215L6.24929 9.90767H6.0788V25.3091C6.0788 27.1277 5.05582 28.1696 3.35087 28.1696Z" fill="#57CC02"/>
</svg>
