<svg width="24" height="30" viewBox="0 0 24 30" fill="none" xmlns="http://www.w3.org/2000/svg">
<path d="M3.35087 29.0373C1.62698 29.0373 0.604004 27.9954 0.604004 26.1768V3.82293C0.604004 2.00432 1.66486 0.962402 3.48348 0.962402C4.658 0.962402 5.45365 1.436 6.32507 2.62947L18.1461 19.1486H18.2976V3.84188C18.2976 2.00432 19.3206 0.962402 21.0445 0.962402C22.7684 0.962402 23.7724 2.00432 23.7724 3.84188V26.2525C23.7724 28.0333 22.7684 29.0373 20.9687 29.0373C19.7374 29.0373 18.9796 28.6016 18.1082 27.3892L6.24929 10.7753H6.0788V26.1768C6.0788 27.9954 5.05582 29.0373 3.35087 29.0373Z" fill="white"/>
</svg>
