<svg width="26" height="29" viewBox="0 0 26 29" fill="none" xmlns="http://www.w3.org/2000/svg">
<path d="M13.3608 28.2643C5.19602 28.2643 0.194824 22.9411 0.194824 14.0564C0.194824 5.3043 5.19602 0 13.2282 0C18.4757 0 22.5865 2.46271 24.121 5.81578C24.443 6.47882 24.5378 7.02819 24.5378 7.57757C24.5378 9.03625 23.5337 10.0403 22.0372 10.0403C20.8247 10.0403 19.9723 9.52879 19.2713 8.37321C17.9263 5.92944 15.9372 4.73598 13.2472 4.73598C8.73853 4.73598 6.02955 8.16483 6.02955 13.9806C6.02955 19.9101 8.90902 23.5283 13.4556 23.5283C17.1875 23.5283 19.7828 21.2361 19.8965 17.8452L19.9154 17.4095H15.9372C14.5733 17.4095 13.645 16.6328 13.645 15.3256C13.645 14.0185 14.5543 13.2418 15.9372 13.2418H22.6244C24.4241 13.2418 25.4849 14.3405 25.4849 16.216V16.6328C25.4849 23.5852 21.071 28.2643 13.3608 28.2643Z" fill="#57CC02"/>
</svg>
