<svg width="20" height="28" viewBox="0 0 20 28" fill="none" xmlns="http://www.w3.org/2000/svg">
<path d="M3.56219 27.8097C1.76252 27.8097 0.70166 26.711 0.70166 24.8166V3.44783C0.70166 1.57238 1.76252 0.473633 3.56219 0.473633H16.5577C18.1301 0.473633 19.153 1.364 19.153 2.84162C19.153 4.31925 18.1111 5.20961 16.5577 5.20961H6.42272V11.7831H16.0652C17.486 11.7831 18.4521 12.6167 18.4521 13.9806C18.4521 15.3446 17.5049 16.1781 16.0652 16.1781H6.42272V23.0737H16.5577C18.1111 23.0737 19.153 23.9641 19.153 25.4417C19.153 26.9193 18.1301 27.8097 16.5577 27.8097H3.56219Z" fill="#57CC02"/>
</svg>
