<svg width="30" height="30" viewBox="0 0 30 30" fill="none" xmlns="http://www.w3.org/2000/svg">
<path d="M3.05718 29.0373C1.44695 29.0373 0.499756 28.0522 0.499756 26.3662V4.65647C0.499756 2.34531 1.86372 0.962402 4.19382 0.962402C6.18293 0.962402 7.28168 1.79593 8.11521 3.91765L14.8971 20.7209H15.0487L21.8117 3.91765C22.6452 1.81488 23.7629 0.962402 25.7709 0.962402C28.0821 0.962402 29.4461 2.32636 29.4461 4.65647V26.3662C29.4461 28.0522 28.4989 29.0373 26.8886 29.0373C25.2784 29.0373 24.3501 28.0522 24.3501 26.3662V10.226H24.1986L17.4356 26.764C16.9431 27.9764 16.1853 28.5069 14.9918 28.5069C13.7794 28.5069 12.9838 27.9575 12.5102 26.783L5.74722 10.226H5.59567V26.3662C5.59567 28.0522 4.66742 29.0373 3.05718 29.0373Z" fill="white"/>
</svg>
