<svg width="30" height="29" viewBox="0 0 30 29" fill="none" xmlns="http://www.w3.org/2000/svg">
<path d="M3.20855 28.1696C1.59832 28.1696 0.651123 27.1845 0.651123 25.4985V3.78879C0.651123 1.47763 2.01508 0.0947266 4.34519 0.0947266C6.3343 0.0947266 7.43304 0.928259 8.26658 3.04998L15.0485 19.8532H15.2L21.963 3.04998C22.7966 0.947203 23.9143 0.0947266 25.9223 0.0947266C28.2335 0.0947266 29.5974 1.45869 29.5974 3.78879V25.4985C29.5974 27.1845 28.6502 28.1696 27.04 28.1696C25.4298 28.1696 24.5015 27.1845 24.5015 25.4985V9.3583H24.35L17.587 25.8963C17.0944 27.1087 16.3367 27.6392 15.1432 27.6392C13.9308 27.6392 13.1352 27.0898 12.6616 25.9153L5.89859 9.3583H5.74704V25.4985C5.74704 27.1845 4.81878 28.1696 3.20855 28.1696Z" fill="#57CC02"/>
</svg>
